<svg width="2636" height="1481" xmlns="http://www.w3.org/2000/svg" xmlns:xlink="http://www.w3.org/1999/xlink" xml:space="preserve" overflow="hidden"><defs><clipPath id="clip0"><rect x="2161" y="171" width="2636" height="1481"/></clipPath></defs><g clip-path="url(#clip0)" transform="translate(-2161 -171)"><rect x="2162" y="172" width="2633" height="1478" fill="#FFFFFF"/><g><path d="M2818.5 1354.54 4744.5 1354.54M2818.5 1166.54 4744.5 1166.54M2818.5 977.532 4744.5 977.532M2818.5 788.526 4744.5 788.526M2818.5 599.52 4744.5 599.52M2818.5 411.514 4744.5 411.514M2818.5 222.5 4744.5 222.5" stroke="#D9D9D9" stroke-width="3.4375" stroke-linejoin="round" stroke-miterlimit="10" fill="none"/></g><g><path d="M2859 1544 2939.1 1544 3019.1 1544 3099.1 1544 3180.1 1544 3260.11 1544 3340.11 1544 3420.11 1544 3420.11 411.013 3501.11 336.011 3581.12 298.01 3661.12 260 3741.12 260 3822.13 298.01 3902.13 336.011 3982.13 260 4062.13 298.01 4143.14 411.013 4223.14 487.016 4223.14 1544 4303.14 1544 4384.14 1544 4464.15 1544 4544.15 1544 4624.15 1544 4705 1544 4705 1544 4624.15 1544 4544.15 1544 4464.15 1544 4384.14 1544 4303.14 1544 4223.14 1544 4223.14 1544 4143.14 1544 4062.13 1544 3982.13 1544 3902.13 1544 3822.13 1544 3741.12 1544 3661.12 1544 3581.12 1544 3501.11 1544 3420.11 1544 3420.11 1544 3340.11 1544 3260.11 1544 3180.1 1544 3099.1 1544 3019.1 1544 2939.1 1544 2859 1544Z" fill="#A9D18E"/></g><g><path d="M2818.5 1543.5 4744.5 1543.5" stroke="#D9D9D9" stroke-width="3.4375" stroke-linejoin="round" stroke-miterlimit="10" fill="none" fill-rule="evenodd"/></g><g><path d="M2859 1355C2885.75 1355 2912.51 1355 2939.26 1355 2966.01 1355 2992.77 1355 3019.52 1355 3046.28 1355 3073.03 1355 3099.78 1355 3126.54 1355 3153.29 1355 3180.04 1355 3206.8 1355 3233.55 1355 3260.3 1355 3287.06 1355 3313.81 1355 3340.57 1355 3367.32 1355 3394.07 1355 3420.83 1355 3447.58 1355 3474.33 1355 3501.09 1355 3527.84 1355 3554.59 1355 3581.35 1355 3608.1 1355 3634.85 1355 3661.61 1355 3688.36 1355 3715.12 1355 3741.87 1355 3768.62 1355 3795.38 1355 3822.13 1355 3848.88 1355 3875.64 1355 3902.39 1355 3929.14 1355 3955.9 1355 3982.65 1355 4009.41 1355 4036.16 1355 4062.91 1355 4089.67 1355 4116.42 1355 4143.17 1355 4169.93 1355 4196.68 1355 4223.43 1355 4250.19 1355 4276.94 1355 4303.7 1355 4330.45 1355 4357.2 1355 4383.96 1355 4410.71 1355 4437.46 1355 4464.22 1355 4490.97 1355 4517.72 1355 4544.48 1355 4571.23 1355 4597.99 1355 4624.74 1355 4651.49 1355 4678.25 1355 4705 1355" stroke="#ED7D31" stroke-width="10.3125" stroke-linecap="round" stroke-linejoin="round" stroke-miterlimit="10" fill="none"/></g><g><path d="M2859 1430C2885.75 1430 2912.51 1430 2939.26 1430 2966.01 1430 2992.77 1430 3019.52 1430 3046.28 1430 3073.03 1430 3099.78 1430 3126.54 1430 3153.29 1430 3180.04 1430 3206.8 1430 3233.55 1430 3260.3 1430 3287.06 1430 3313.81 1430 3340.57 1430 3367.32 1430 3394.07 1430 3420.83 1430 3447.58 1430 3474.33 1430 3501.09 1430 3527.84 1430 3554.59 1430 3581.35 1430 3608.1 1430 3634.85 1430 3661.61 1430 3688.36 1430 3715.12 1430 3741.87 1430 3768.62 1430 3795.38 1430 3822.13 1430 3848.88 1430 3875.64 1430 3902.39 1430 3929.14 1430 3955.9 1430 3982.65 1430 4009.41 1430 4036.16 1430 4062.91 1430 4089.67 1430 4116.42 1430 4143.17 1430 4169.93 1430 4196.68 1430 4223.43 1430 4250.19 1430 4276.94 1430 4303.7 1430 4330.45 1430 4357.2 1430 4383.96 1430 4410.71 1430 4437.46 1430 4464.22 1430 4490.97 1430 4517.72 1430 4544.48 1430 4571.23 1430 4597.99 1430 4624.74 1430 4651.49 1430 4678.25 1430 4705 1430" stroke="#FFD966" stroke-width="10.3125" stroke-linecap="round" stroke-linejoin="round" stroke-miterlimit="10" fill="none"/></g><g><path d="M2859 638 2939.1 638 3019.1 638 3099.1 638 3180.1 638 3260.11 638 3340.11 638 3420.11 411.013 3501.11 336.011 3581.12 298.01 3661.12 260 3741.12 260 3822.13 298.01 3902.13 336.011 3982.13 260 4062.13 298.01 4143.14 411.013 4223.14 487.016 4303.14 600.02 4384.14 638 4464.15 638 4544.15 638 4624.15 638 4705 638" stroke="#4472C4" stroke-width="10.3125" stroke-linecap="round" stroke-linejoin="round" stroke-miterlimit="10" fill="none"/></g><g><path d="M2859 675 2939.1 675 3019.1 675 3099.1 675 3180.1 675 3260.11 675 3340.11 675 3420.11 638.021 3501.11 600.02 3581.12 562.018 3661.12 487.016 3741.12 449 3822.13 449 3902.13 487.016 3982.13 487.016 4062.13 524.017 4143.14 600.02 4223.14 600.02 4303.14 675 4384.14 675 4464.15 675 4544.15 675 4624.15 675 4705 675" stroke="#5B9BD5" stroke-width="10.3125" stroke-linecap="round" stroke-linejoin="round" stroke-miterlimit="10" fill="none"/></g><g><path d="M2859 1506 2939.1 1506 3019.1 1506 3099.1 1506 3180.1 1506 3260.11 1506 3340.11 1506 3420.11 1317.04 3501.11 1279 3581.12 1279 3661.12 1317.04 3741.12 1355.04 3822.13 1393.05 3902.13 1393.05 3982.13 1317.04 4062.13 1317.04 4143.14 1355.04 4223.14 1430.05 4303.14 1468.05 4384.14 1506 4464.15 1506 4544.15 1506 4624.15 1506 4705 1506" stroke="#70AD47" stroke-width="10.3125" stroke-linecap="round" stroke-linejoin="round" stroke-miterlimit="10" fill="none"/></g><g><text fill="#595959" font-family="Calibri,Calibri_MSFontService,sans-serif" font-weight="400" font-size="41" transform="matrix(1 0 0 1 2714.07 1555)">0,0°</text></g><g><text fill="#595959" font-family="Calibri,Calibri_MSFontService,sans-serif" font-weight="400" font-size="41" transform="matrix(1 0 0 1 2714.07 1366)">5,0°</text></g><g><text fill="#595959" font-family="Calibri,Calibri_MSFontService,sans-serif" font-weight="400" font-size="41" transform="matrix(1 0 0 1 2693.17 1178)">10,0°</text></g><g><text fill="#595959" font-family="Calibri,Calibri_MSFontService,sans-serif" font-weight="400" font-size="41" transform="matrix(1 0 0 1 2693.17 989)">15,0°</text></g><g><text fill="#595959" font-family="Calibri,Calibri_MSFontService,sans-serif" font-weight="400" font-size="41" transform="matrix(1 0 0 1 2693.17 800)">20,0°</text></g><g><text fill="#595959" font-family="Calibri,Calibri_MSFontService,sans-serif" font-weight="400" font-size="41" transform="matrix(1 0 0 1 2693.17 611)">25,0°</text></g><g><text fill="#595959" font-family="Calibri,Calibri_MSFontService,sans-serif" font-weight="400" font-size="41" transform="matrix(1 0 0 1 2693.17 423)">30,0°</text></g><g><text fill="#595959" font-family="Calibri,Calibri_MSFontService,sans-serif" font-weight="400" font-size="41" transform="matrix(1 0 0 1 2693.17 234)">35,0°</text></g><g><text fill="#595959" font-family="Calibri,Calibri_MSFontService,sans-serif" font-weight="400" font-size="41" transform="matrix(1 0 0 1 2848.09 1609)">1</text></g><g><text fill="#595959" font-family="Calibri,Calibri_MSFontService,sans-serif" font-weight="400" font-size="41" transform="matrix(1 0 0 1 2928.36 1609)">2</text></g><g><text fill="#595959" font-family="Calibri,Calibri_MSFontService,sans-serif" font-weight="400" font-size="41" transform="matrix(1 0 0 1 3008.63 1609)">3</text></g><g><text fill="#595959" font-family="Calibri,Calibri_MSFontService,sans-serif" font-weight="400" font-size="41" transform="matrix(1 0 0 1 3088.9 1609)">4</text></g><g><text fill="#595959" font-family="Calibri,Calibri_MSFontService,sans-serif" font-weight="400" font-size="41" transform="matrix(1 0 0 1 3169.17 1609)">5</text></g><g><text fill="#595959" font-family="Calibri,Calibri_MSFontService,sans-serif" font-weight="400" font-size="41" transform="matrix(1 0 0 1 3249.44 1609)">6</text></g><g><text fill="#595959" font-family="Calibri,Calibri_MSFontService,sans-serif" font-weight="400" font-size="41" transform="matrix(1 0 0 1 3329.71 1609)">7</text></g><g><text fill="#595959" font-family="Calibri,Calibri_MSFontService,sans-serif" font-weight="400" font-size="41" transform="matrix(1 0 0 1 3409.98 1609)">8</text></g><g><text fill="#595959" font-family="Calibri,Calibri_MSFontService,sans-serif" font-weight="400" font-size="41" transform="matrix(1 0 0 1 3490.25 1609)">9</text></g><g><text fill="#595959" font-family="Calibri,Calibri_MSFontService,sans-serif" font-weight="400" font-size="41" transform="matrix(1 0 0 1 3560.07 1609)">10</text></g><g><text fill="#595959" font-family="Calibri,Calibri_MSFontService,sans-serif" font-weight="400" font-size="41" transform="matrix(1 0 0 1 3640.34 1609)">11</text></g><g><text fill="#595959" font-family="Calibri,Calibri_MSFontService,sans-serif" font-weight="400" font-size="41" transform="matrix(1 0 0 1 3720.61 1609)">12</text></g><g><text fill="#595959" font-family="Calibri,Calibri_MSFontService,sans-serif" font-weight="400" font-size="41" transform="matrix(1 0 0 1 3800.88 1609)">13</text></g><g><text fill="#595959" font-family="Calibri,Calibri_MSFontService,sans-serif" font-weight="400" font-size="41" transform="matrix(1 0 0 1 3881.16 1609)">14</text></g><g><text fill="#595959" font-family="Calibri,Calibri_MSFontService,sans-serif" font-weight="400" font-size="41" transform="matrix(1 0 0 1 3961.43 1609)">15</text></g><g><text fill="#595959" font-family="Calibri,Calibri_MSFontService,sans-serif" font-weight="400" font-size="41" transform="matrix(1 0 0 1 4041.7 1609)">16</text></g><g><text fill="#595959" font-family="Calibri,Calibri_MSFontService,sans-serif" font-weight="400" font-size="41" transform="matrix(1 0 0 1 4121.97 1609)">17</text></g><g><text fill="#595959" font-family="Calibri,Calibri_MSFontService,sans-serif" font-weight="400" font-size="41" transform="matrix(1 0 0 1 4202.24 1609)">18</text></g><g><text fill="#595959" font-family="Calibri,Calibri_MSFontService,sans-serif" font-weight="400" font-size="41" transform="matrix(1 0 0 1 4282.51 1609)">19</text></g><g><text fill="#595959" font-family="Calibri,Calibri_MSFontService,sans-serif" font-weight="400" font-size="41" transform="matrix(1 0 0 1 4362.78 1609)">20</text></g><g><text fill="#595959" font-family="Calibri,Calibri_MSFontService,sans-serif" font-weight="400" font-size="41" transform="matrix(1 0 0 1 4443.05 1609)">21</text></g><g><text fill="#595959" font-family="Calibri,Calibri_MSFontService,sans-serif" font-weight="400" font-size="41" transform="matrix(1 0 0 1 4523.32 1609)">22</text></g><g><text fill="#595959" font-family="Calibri,Calibri_MSFontService,sans-serif" font-weight="400" font-size="41" transform="matrix(1 0 0 1 4603.59 1609)">23</text></g><g><text fill="#595959" font-family="Calibri,Calibri_MSFontService,sans-serif" font-weight="400" font-size="41" transform="matrix(1 0 0 1 4683.86 1609)">24</text></g><g><path d="M2211 756 2299 756" stroke="#ED7D31" stroke-width="10.3125" stroke-linecap="round" stroke-linejoin="round" stroke-miterlimit="10" fill="none" fill-rule="evenodd"/></g><g><text fill="#595959" font-family="Calibri,Calibri_MSFontService,sans-serif" font-weight="400" font-size="41" transform="matrix(1 0 0 1 2308.28 768)">Activation</text></g><g><path d="M2211 834 2299 834" stroke="#FFD966" stroke-width="10.3125" stroke-linecap="round" stroke-linejoin="round" stroke-miterlimit="10" fill="none" fill-rule="evenodd"/></g><g><text fill="#595959" font-family="Calibri,Calibri_MSFontService,sans-serif" font-weight="400" font-size="41" transform="matrix(1 0 0 1 2308.28 845)">Hysteresis</text></g><g><path d="M2211 911 2299 911" stroke="#4472C4" stroke-width="10.3125" stroke-linecap="round" stroke-linejoin="round" stroke-miterlimit="10" fill="none" fill-rule="evenodd"/></g><g><text fill="#595959" font-family="Calibri,Calibri_MSFontService,sans-serif" font-weight="400" font-size="41" transform="matrix(1 0 0 1 2308.28 922)">Temperature flow</text></g><g><path d="M2211 988 2299 988" stroke="#5B9BD5" stroke-width="10.3125" stroke-linecap="round" stroke-linejoin="round" stroke-miterlimit="10" fill="none" fill-rule="evenodd"/></g><g><text fill="#595959" font-family="Calibri,Calibri_MSFontService,sans-serif" font-weight="400" font-size="41" transform="matrix(1 0 0 1 2308.28 1000)">Temperature return</text></g><g><path d="M2211 1066 2299 1066" stroke="#70AD47" stroke-width="10.3125" stroke-linecap="round" stroke-linejoin="round" stroke-miterlimit="10" fill="none" fill-rule="evenodd"/></g><g><text fill="#595959" font-family="Calibri,Calibri_MSFontService,sans-serif" font-weight="400" font-size="41" transform="matrix(1 0 0 1 2308.28 1077)">∆T</text></g><rect x="2162.5" y="172.5" width="2633" height="1478" stroke="#D9D9D9" stroke-width="3.4375" stroke-linejoin="round" stroke-miterlimit="10" fill="none"/><text font-family="Calibri,Calibri_MSFontService,sans-serif" font-weight="400" font-size="50" transform="matrix(1 0 0 1 3660.76 1044)">Pump activated</text></g></svg>