<svg width="2636" height="1481" xmlns="http://www.w3.org/2000/svg" xmlns:xlink="http://www.w3.org/1999/xlink" xml:space="preserve" overflow="hidden"><defs><clipPath id="clip0"><rect x="1336" y="171" width="2636" height="1481"/></clipPath><clipPath id="clip1"><rect x="1877" y="222" width="2046" height="1325"/></clipPath></defs><g clip-path="url(#clip0)" transform="translate(-1336 -171)"><rect x="1337" y="172" width="2633" height="1478" fill="#FFFFFF"/><g><path d="M1877.5 1354.54 3919.5 1354.54M1877.5 1166.54 3919.5 1166.54M1877.5 977.532 3919.5 977.532M1877.5 788.526 3919.5 788.526M1877.5 599.52 3919.5 599.52M1877.5 411.514 3919.5 411.514M1877.5 222.5 3919.5 222.5" stroke="#D9D9D9" stroke-width="3.4375" stroke-linejoin="round" stroke-miterlimit="10" fill="none"/></g><g clip-path="url(#clip1)"><path d="M1920 2110 2005.07 2110 2090.07 2110 2175.07 2110 2260.07 2110 2346.08 2110 2431.08 2110 2516.08 2110 2516.08 977.032 2601.09 336.011 2686.09 298 2771.09 298 2856.09 411.013 2941.1 449.015 3026.1 789.026 3111.1 977.032 3196.1 1015.03 3282.11 675.022 3367.11 562.018 3452.11 600.02 3537.12 789.026 3622.12 1053.03 3622.12 2110 3707.12 2110 3792.12 2110 3877 2110 3877 1544.05 3792.12 1544.05 3707.12 1544.05 3622.12 1544.05 3622.12 1544.05 3537.12 1544.05 3452.11 1544.05 3367.11 1544.05 3282.11 1544.05 3196.1 1544.05 3111.1 1544.05 3026.1 1544.05 2941.1 1544.05 2856.09 1544.05 2771.09 1544.05 2686.09 1544.05 2601.09 1544.05 2516.08 1544.05 2516.08 1544.05 2431.08 1544.05 2346.08 1544.05 2260.07 1544.05 2175.07 1544.05 2090.07 1544.05 2005.07 1544.05 1920 1544.05Z" fill="#A9D18E"/></g><g><path d="M1877.5 1543.5 3919.5 1543.5" stroke="#D9D9D9" stroke-width="3.4375" stroke-linejoin="round" stroke-miterlimit="10" fill="none" fill-rule="evenodd"/></g><g><path d="M1920 977C1948.36 977 1976.72 977 2005.09 977 2033.45 977 2061.81 977 2090.17 977 2118.54 977 2146.9 977 2175.26 977 2203.62 977 2231.99 977 2260.35 977 2288.71 977 2317.07 977 2345.43 977 2373.8 977 2402.16 977 2430.52 977 2458.88 977 2487.25 977 2515.61 977 2543.97 977 2572.33 977 2600.7 977 2629.06 977 2657.42 977 2685.78 977 2714.15 977 2742.51 977 2770.87 977 2799.23 977 2827.59 977 2855.96 977 2884.32 977 2912.68 977 2941.04 977 2969.41 977 2997.77 977 3026.13 977 3054.49 977 3082.85 977 3111.22 977 3139.58 977 3167.94 977 3196.3 977 3224.67 977 3253.03 977 3281.39 977 3309.75 977 3338.12 977 3366.48 977 3394.84 977 3423.2 977 3451.57 977 3479.93 977 3508.29 977 3536.65 977 3565.01 977 3593.38 977 3621.74 977 3650.1 977 3678.46 977 3706.83 977 3735.19 977 3763.55 977 3791.91 977 3820.28 977 3848.64 977 3877 977" stroke="#ED7D31" stroke-width="10.3125" stroke-linecap="round" stroke-linejoin="round" stroke-miterlimit="10" fill="none"/></g><g><path d="M1920 1053C1948.36 1053 1976.72 1053 2005.09 1053 2033.45 1053 2061.81 1053 2090.17 1053 2118.54 1053 2146.9 1053 2175.26 1053 2203.62 1053 2231.99 1053 2260.35 1053 2288.71 1053 2317.07 1053 2345.43 1053 2373.8 1053 2402.16 1053 2430.52 1053 2458.88 1053 2487.25 1053 2515.61 1053 2543.97 1053 2572.33 1053 2600.7 1053 2629.06 1053 2657.42 1053 2685.78 1053 2714.15 1053 2742.51 1053 2770.87 1053 2799.23 1053 2827.59 1053 2855.96 1053 2884.32 1053 2912.68 1053 2941.04 1053 2969.41 1053 2997.77 1053 3026.13 1053 3054.49 1053 3082.85 1053 3111.22 1053 3139.58 1053 3167.94 1053 3196.3 1053 3224.67 1053 3253.03 1053 3281.39 1053 3309.75 1053 3338.12 1053 3366.48 1053 3394.84 1053 3423.2 1053 3451.57 1053 3479.93 1053 3508.29 1053 3536.65 1053 3565.01 1053 3593.38 1053 3621.74 1053 3650.1 1053 3678.46 1053 3706.83 1053 3735.19 1053 3763.55 1053 3791.91 1053 3820.28 1053 3848.64 1053 3877 1053" stroke="#FFD966" stroke-width="10.3125" stroke-linecap="round" stroke-linejoin="round" stroke-miterlimit="10" fill="none"/></g><g><path d="M1920 1204 2005.07 1204 2090.07 1204 2175.07 1204 2260.07 1204 2346.08 1204 2431.08 1204 2516.08 977.032 2601.09 336.011 2686.09 298 2771.09 298 2856.09 411.013 2941.1 449.015 3026.1 789.026 3111.1 977.032 3196.1 1015.03 3282.11 675.022 3367.11 562.018 3452.11 600.02 3537.12 789.026 3622.12 1053.03 3707.12 1204 3792.12 1204 3877 1204" stroke="#4472C4" stroke-width="10.3125" stroke-linecap="round" stroke-linejoin="round" stroke-miterlimit="10" fill="none"/></g><g><text fill="#595959" font-family="Calibri,Calibri_MSFontService,sans-serif" font-weight="400" font-size="41" transform="matrix(1 0 0 1 1752.35 1555)">15,0°</text></g><g><text fill="#595959" font-family="Calibri,Calibri_MSFontService,sans-serif" font-weight="400" font-size="41" transform="matrix(1 0 0 1 1752.35 1366)">20,0°</text></g><g><text fill="#595959" font-family="Calibri,Calibri_MSFontService,sans-serif" font-weight="400" font-size="41" transform="matrix(1 0 0 1 1752.35 1178)">25,0°</text></g><g><text fill="#595959" font-family="Calibri,Calibri_MSFontService,sans-serif" font-weight="400" font-size="41" transform="matrix(1 0 0 1 1752.35 989)">30,0°</text></g><g><text fill="#595959" font-family="Calibri,Calibri_MSFontService,sans-serif" font-weight="400" font-size="41" transform="matrix(1 0 0 1 1752.35 800)">35,0°</text></g><g><text fill="#595959" font-family="Calibri,Calibri_MSFontService,sans-serif" font-weight="400" font-size="41" transform="matrix(1 0 0 1 1752.35 611)">40,0°</text></g><g><text fill="#595959" font-family="Calibri,Calibri_MSFontService,sans-serif" font-weight="400" font-size="41" transform="matrix(1 0 0 1 1752.35 423)">45,0°</text></g><g><text fill="#595959" font-family="Calibri,Calibri_MSFontService,sans-serif" font-weight="400" font-size="41" transform="matrix(1 0 0 1 1752.35 234)">50,0°</text></g><g><text fill="#595959" font-family="Calibri,Calibri_MSFontService,sans-serif" font-weight="400" font-size="41" transform="matrix(1 0 0 1 1909.68 1609)">1</text></g><g><text fill="#595959" font-family="Calibri,Calibri_MSFontService,sans-serif" font-weight="400" font-size="41" transform="matrix(1 0 0 1 1994.78 1609)">2</text></g><g><text fill="#595959" font-family="Calibri,Calibri_MSFontService,sans-serif" font-weight="400" font-size="41" transform="matrix(1 0 0 1 2079.87 1609)">3</text></g><g><text fill="#595959" font-family="Calibri,Calibri_MSFontService,sans-serif" font-weight="400" font-size="41" transform="matrix(1 0 0 1 2164.97 1609)">4</text></g><g><text fill="#595959" font-family="Calibri,Calibri_MSFontService,sans-serif" font-weight="400" font-size="41" transform="matrix(1 0 0 1 2250.07 1609)">5</text></g><g><text fill="#595959" font-family="Calibri,Calibri_MSFontService,sans-serif" font-weight="400" font-size="41" transform="matrix(1 0 0 1 2335.16 1609)">6</text></g><g><text fill="#595959" font-family="Calibri,Calibri_MSFontService,sans-serif" font-weight="400" font-size="41" transform="matrix(1 0 0 1 2420.26 1609)">7</text></g><g><text fill="#595959" font-family="Calibri,Calibri_MSFontService,sans-serif" font-weight="400" font-size="41" transform="matrix(1 0 0 1 2505.36 1609)">8</text></g><g><text fill="#595959" font-family="Calibri,Calibri_MSFontService,sans-serif" font-weight="400" font-size="41" transform="matrix(1 0 0 1 2590.45 1609)">9</text></g><g><text fill="#595959" font-family="Calibri,Calibri_MSFontService,sans-serif" font-weight="400" font-size="41" transform="matrix(1 0 0 1 2665.1 1609)">10</text></g><g><text fill="#595959" font-family="Calibri,Calibri_MSFontService,sans-serif" font-weight="400" font-size="41" transform="matrix(1 0 0 1 2750.19 1609)">11</text></g><g><text fill="#595959" font-family="Calibri,Calibri_MSFontService,sans-serif" font-weight="400" font-size="41" transform="matrix(1 0 0 1 2835.29 1609)">12</text></g><g><text fill="#595959" font-family="Calibri,Calibri_MSFontService,sans-serif" font-weight="400" font-size="41" transform="matrix(1 0 0 1 2920.39 1609)">13</text></g><g><text fill="#595959" font-family="Calibri,Calibri_MSFontService,sans-serif" font-weight="400" font-size="41" transform="matrix(1 0 0 1 3005.48 1609)">14</text></g><g><text fill="#595959" font-family="Calibri,Calibri_MSFontService,sans-serif" font-weight="400" font-size="41" transform="matrix(1 0 0 1 3090.58 1609)">15</text></g><g><text fill="#595959" font-family="Calibri,Calibri_MSFontService,sans-serif" font-weight="400" font-size="41" transform="matrix(1 0 0 1 3175.68 1609)">16</text></g><g><text fill="#595959" font-family="Calibri,Calibri_MSFontService,sans-serif" font-weight="400" font-size="41" transform="matrix(1 0 0 1 3260.77 1609)">17</text></g><g><text fill="#595959" font-family="Calibri,Calibri_MSFontService,sans-serif" font-weight="400" font-size="41" transform="matrix(1 0 0 1 3345.87 1609)">18</text></g><g><text fill="#595959" font-family="Calibri,Calibri_MSFontService,sans-serif" font-weight="400" font-size="41" transform="matrix(1 0 0 1 3430.97 1609)">19</text></g><g><text fill="#595959" font-family="Calibri,Calibri_MSFontService,sans-serif" font-weight="400" font-size="41" transform="matrix(1 0 0 1 3516.06 1609)">20</text></g><g><text fill="#595959" font-family="Calibri,Calibri_MSFontService,sans-serif" font-weight="400" font-size="41" transform="matrix(1 0 0 1 3601.16 1609)">21</text></g><g><text fill="#595959" font-family="Calibri,Calibri_MSFontService,sans-serif" font-weight="400" font-size="41" transform="matrix(1 0 0 1 3686.25 1609)">22</text></g><g><text fill="#595959" font-family="Calibri,Calibri_MSFontService,sans-serif" font-weight="400" font-size="41" transform="matrix(1 0 0 1 3771.35 1609)">23</text></g><g><text fill="#595959" font-family="Calibri,Calibri_MSFontService,sans-serif" font-weight="400" font-size="41" transform="matrix(1 0 0 1 3856.45 1609)">24</text></g><g><path d="M1386 834 1474 834" stroke="#ED7D31" stroke-width="10.3125" stroke-linecap="round" stroke-linejoin="round" stroke-miterlimit="10" fill="none" fill-rule="evenodd"/></g><g><text fill="#595959" font-family="Calibri,Calibri_MSFontService,sans-serif" font-weight="400" font-size="41" transform="matrix(1 0 0 1 1483.28 845)">Activation</text></g><g><path d="M1386 911 1474 911" stroke="#FFD966" stroke-width="10.3125" stroke-linecap="round" stroke-linejoin="round" stroke-miterlimit="10" fill="none" fill-rule="evenodd"/></g><g><text fill="#595959" font-family="Calibri,Calibri_MSFontService,sans-serif" font-weight="400" font-size="41" transform="matrix(1 0 0 1 1483.28 922)">Hysteresis</text></g><g><path d="M1386 988 1474 988" stroke="#4472C4" stroke-width="10.3125" stroke-linecap="round" stroke-linejoin="round" stroke-miterlimit="10" fill="none" fill-rule="evenodd"/></g><g><text fill="#595959" font-family="Calibri,Calibri_MSFontService,sans-serif" font-weight="400" font-size="41" transform="matrix(1 0 0 1 1483.28 1000)">Temperature</text></g><rect x="1337.5" y="172.5" width="2633" height="1478" stroke="#D9D9D9" stroke-width="3.4375" stroke-linejoin="round" stroke-miterlimit="10" fill="none"/><text font-family="Calibri,Calibri_MSFontService,sans-serif" font-weight="400" font-size="50" transform="matrix(1 0 0 1 2909.67 1233)">Pump activated</text></g></svg>