<svg width="923" height="518" xmlns="http://www.w3.org/2000/svg" xmlns:xlink="http://www.w3.org/1999/xlink" xml:space="preserve" overflow="hidden"><g transform="translate(-102 -96)"><path d="M756.189 60.1594 1677.12 60.1594 1677.12 577.11 756.189 577.11Z" fill="#FFFFFF" transform="matrix(1.00111 0 0 1 -654.678 36.1904)"/><path d="M985.809 473.769 1659.45 473.769M985.809 408.013 1659.45 408.013M985.809 341.905 1659.45 341.905M985.809 275.798 1659.45 275.798M985.809 209.69 1659.45 209.69M985.809 143.933 1659.45 143.933M985.809 77.8224 1659.45 77.8224" stroke="#D9D9D9" stroke-width="1.20231" stroke-linejoin="round" stroke-miterlimit="10" fill="none" transform="matrix(1.00111 0 0 1 -654.678 36.1904)"/><path d="M999.974 540.035 1027.99 540.035 1055.97 540.035 1083.95 540.035 1112.28 540.035 1140.27 540.035 1168.25 540.035 1196.23 540.035 1196.23 143.757 1224.56 117.524 1252.55 104.233 1280.53 90.9386 1308.51 90.9386 1336.84 104.233 1364.82 117.524 1392.8 90.9386 1420.79 104.233 1449.12 143.757 1477.1 170.34 1477.1 540.035 1505.08 540.035 1533.41 540.035 1561.4 540.035 1589.38 540.035 1617.36 540.035 1645.64 540.035 1645.64 540.035 1617.36 540.035 1589.38 540.035 1561.4 540.035 1533.41 540.035 1505.08 540.035 1477.1 540.035 1477.1 540.035 1449.12 540.035 1420.79 540.035 1392.8 540.035 1364.82 540.035 1336.84 540.035 1308.51 540.035 1280.53 540.035 1252.55 540.035 1224.56 540.035 1196.23 540.035 1196.23 540.035 1168.25 540.035 1140.27 540.035 1112.28 540.035 1083.95 540.035 1055.97 540.035 1027.99 540.035 999.974 540.035Z" fill="#A9D18E" transform="matrix(1.00111 0 0 1 -654.678 36.1904)"/><path d="M985.809 539.86 1659.45 539.86" stroke="#D9D9D9" stroke-width="1.20231" stroke-linejoin="round" stroke-miterlimit="10" fill="none" fill-rule="evenodd" transform="matrix(1.00111 0 0 1 -654.678 36.1904)"/><path d="M999.974 473.93C1009.33 473.93 1018.69 473.93 1028.05 473.93 1037.4 473.93 1046.76 473.93 1056.12 473.93 1065.48 473.93 1074.83 473.93 1084.19 473.93 1093.55 473.93 1102.91 473.93 1112.26 473.93 1121.62 473.93 1130.98 473.93 1140.33 473.93 1149.69 473.93 1159.05 473.93 1168.41 473.93 1177.77 473.93 1187.12 473.93 1196.48 473.93 1205.84 473.93 1215.19 473.93 1224.55 473.93 1233.91 473.93 1243.27 473.93 1252.63 473.93 1261.98 473.93 1271.34 473.93 1280.7 473.93 1290.05 473.93 1299.41 473.93 1308.77 473.93 1318.13 473.93 1327.49 473.93 1336.84 473.93 1346.2 473.93 1355.56 473.93 1364.91 473.93 1374.27 473.93 1383.63 473.93 1392.99 473.93 1402.35 473.93 1411.7 473.93 1421.06 473.93 1430.42 473.93 1439.77 473.93 1449.13 473.93 1458.49 473.93 1467.85 473.93 1477.2 473.93 1486.56 473.93 1495.92 473.93 1505.28 473.93 1514.63 473.93 1523.99 473.93 1533.35 473.93 1542.71 473.93 1552.06 473.93 1561.42 473.93 1570.78 473.93 1580.13 473.93 1589.49 473.93 1598.85 473.93 1608.21 473.93 1617.57 473.93 1626.92 473.93 1636.28 473.93 1645.64 473.93" stroke="#ED7D31" stroke-width="3.60694" stroke-linecap="round" stroke-linejoin="round" stroke-miterlimit="10" fill="none" transform="matrix(1.00111 0 0 1 -654.678 36.1904)"/><path d="M999.974 500.162C1009.33 500.162 1018.69 500.162 1028.05 500.162 1037.4 500.162 1046.76 500.162 1056.12 500.162 1065.48 500.162 1074.83 500.162 1084.19 500.162 1093.55 500.162 1102.91 500.162 1112.26 500.162 1121.62 500.162 1130.98 500.162 1140.33 500.162 1149.69 500.162 1159.05 500.162 1168.41 500.162 1177.77 500.162 1187.12 500.162 1196.48 500.162 1205.84 500.162 1215.19 500.162 1224.55 500.162 1233.91 500.162 1243.27 500.162 1252.63 500.162 1261.98 500.162 1271.34 500.162 1280.7 500.162 1290.05 500.162 1299.41 500.162 1308.77 500.162 1318.13 500.162 1327.49 500.162 1336.84 500.162 1346.2 500.162 1355.56 500.162 1364.91 500.162 1374.27 500.162 1383.63 500.162 1392.99 500.162 1402.35 500.162 1411.7 500.162 1421.06 500.162 1430.42 500.162 1439.77 500.162 1449.13 500.162 1458.49 500.162 1467.85 500.162 1477.2 500.162 1486.56 500.162 1495.92 500.162 1505.28 500.162 1514.63 500.162 1523.99 500.162 1533.35 500.162 1542.71 500.162 1552.06 500.162 1561.42 500.162 1570.78 500.162 1580.13 500.162 1589.49 500.162 1598.85 500.162 1608.21 500.162 1617.57 500.162 1626.92 500.162 1636.28 500.162 1645.64 500.162" stroke="#FFD966" stroke-width="3.60694" stroke-linecap="round" stroke-linejoin="round" stroke-miterlimit="10" fill="none" transform="matrix(1.00111 0 0 1 -654.678 36.1904)"/><path d="M999.974 223.149 1027.99 223.149 1055.97 223.149 1083.95 223.149 1112.28 223.149 1140.27 223.149 1168.25 223.149 1196.23 143.757 1224.56 117.524 1252.55 104.233 1280.53 90.9386 1308.51 90.9386 1336.84 104.233 1364.82 117.524 1392.8 90.9386 1420.79 104.233 1449.12 143.757 1477.1 170.34 1505.08 209.865 1533.41 223.149 1561.4 223.149 1589.38 223.149 1617.36 223.149 1645.64 223.149" stroke="#4472C4" stroke-width="3.60694" stroke-linecap="round" stroke-linejoin="round" stroke-miterlimit="10" fill="none" transform="matrix(1.00111 0 0 1 -654.678 36.1904)"/><path d="M999.974 236.09 1027.99 236.09 1055.97 236.09 1083.95 236.09 1112.28 236.09 1140.27 236.09 1168.25 236.09 1196.23 223.157 1224.56 209.865 1252.55 196.573 1280.53 170.34 1308.51 157.044 1336.84 157.044 1364.82 170.34 1392.8 170.34 1420.79 183.282 1449.12 209.865 1477.1 209.865 1505.08 236.09 1533.41 236.09 1561.4 236.09 1589.38 236.09 1617.36 236.09 1645.64 236.09" stroke="#5B9BD5" stroke-width="3.60694" stroke-linecap="round" stroke-linejoin="round" stroke-miterlimit="10" fill="none" transform="matrix(1.00111 0 0 1 -654.678 36.1904)"/><path d="M999.974 526.744 1027.99 526.744 1055.97 526.744 1083.95 526.744 1112.28 526.744 1140.27 526.744 1168.25 526.744 1196.23 460.653 1224.56 447.348 1252.55 447.348 1280.53 460.653 1308.51 473.944 1336.84 487.238 1364.82 487.238 1392.8 460.653 1420.79 460.653 1449.12 473.944 1477.1 500.18 1505.08 513.471 1533.41 526.744 1561.4 526.744 1589.38 526.744 1617.36 526.744 1645.64 526.744" stroke="#70AD47" stroke-width="3.60694" stroke-linecap="round" stroke-linejoin="round" stroke-miterlimit="10" fill="none" transform="matrix(1.00111 0 0 1 -654.678 36.1904)"/><text fill="#595959" font-family="Calibri,Calibri_MSFontService,sans-serif" font-weight="400" font-size="41" transform="matrix(0.350152 0 0 0.349764 295.658 580)">0</text><text fill="#595959" font-family="Calibri,Calibri_MSFontService,sans-serif" font-weight="400" font-size="41" transform="matrix(0.350152 0 0 0.349764 303.012 580)">,</text><text fill="#595959" font-family="Calibri,Calibri_MSFontService,sans-serif" font-weight="400" font-size="41" transform="matrix(0.350152 0 0 0.349764 306.513 580)">0</text><text fill="#595959" font-family="Calibri,Calibri_MSFontService,sans-serif" font-weight="400" font-size="41" transform="matrix(0.350152 0 0 0.349764 313.866 580)">°</text><text fill="#595959" font-family="Calibri,Calibri_MSFontService,sans-serif" font-weight="400" font-size="41" transform="matrix(0.350152 0 0 0.349764 295.658 514)">5</text><text fill="#595959" font-family="Calibri,Calibri_MSFontService,sans-serif" font-weight="400" font-size="41" transform="matrix(0.350152 0 0 0.349764 303.012 514)">,</text><text fill="#595959" font-family="Calibri,Calibri_MSFontService,sans-serif" font-weight="400" font-size="41" transform="matrix(0.350152 0 0 0.349764 306.513 514)">0</text><text fill="#595959" font-family="Calibri,Calibri_MSFontService,sans-serif" font-weight="400" font-size="41" transform="matrix(0.350152 0 0 0.349764 313.866 514)">°</text><text fill="#595959" font-family="Calibri,Calibri_MSFontService,sans-serif" font-weight="400" font-size="41" transform="matrix(0.350152 0 0 0.349764 288.34 448)">10</text><text fill="#595959" font-family="Calibri,Calibri_MSFontService,sans-serif" font-weight="400" font-size="41" transform="matrix(0.350152 0 0 0.349764 303.047 448)">,</text><text fill="#595959" font-family="Calibri,Calibri_MSFontService,sans-serif" font-weight="400" font-size="41" transform="matrix(0.350152 0 0 0.349764 306.548 448)">0</text><text fill="#595959" font-family="Calibri,Calibri_MSFontService,sans-serif" font-weight="400" font-size="41" transform="matrix(0.350152 0 0 0.349764 313.901 448)">°</text><text fill="#595959" font-family="Calibri,Calibri_MSFontService,sans-serif" font-weight="400" font-size="41" transform="matrix(0.350152 0 0 0.349764 288.34 382)">15</text><text fill="#595959" font-family="Calibri,Calibri_MSFontService,sans-serif" font-weight="400" font-size="41" transform="matrix(0.350152 0 0 0.349764 303.047 382)">,</text><text fill="#595959" font-family="Calibri,Calibri_MSFontService,sans-serif" font-weight="400" font-size="41" transform="matrix(0.350152 0 0 0.349764 306.548 382)">0</text><text fill="#595959" font-family="Calibri,Calibri_MSFontService,sans-serif" font-weight="400" font-size="41" transform="matrix(0.350152 0 0 0.349764 313.901 382)">°</text><text fill="#595959" font-family="Calibri,Calibri_MSFontService,sans-serif" font-weight="400" font-size="41" transform="matrix(0.350152 0 0 0.349764 288.34 316)">20</text><text fill="#595959" font-family="Calibri,Calibri_MSFontService,sans-serif" font-weight="400" font-size="41" transform="matrix(0.350152 0 0 0.349764 303.047 316)">,</text><text fill="#595959" font-family="Calibri,Calibri_MSFontService,sans-serif" font-weight="400" font-size="41" transform="matrix(0.350152 0 0 0.349764 306.548 316)">0</text><text fill="#595959" font-family="Calibri,Calibri_MSFontService,sans-serif" font-weight="400" font-size="41" transform="matrix(0.350152 0 0 0.349764 313.901 316)">°</text><text fill="#595959" font-family="Calibri,Calibri_MSFontService,sans-serif" font-weight="400" font-size="41" transform="matrix(0.350152 0 0 0.349764 288.34 250)">25</text><text fill="#595959" font-family="Calibri,Calibri_MSFontService,sans-serif" font-weight="400" font-size="41" transform="matrix(0.350152 0 0 0.349764 303.047 250)">,</text><text fill="#595959" font-family="Calibri,Calibri_MSFontService,sans-serif" font-weight="400" font-size="41" transform="matrix(0.350152 0 0 0.349764 306.548 250)">0</text><text fill="#595959" font-family="Calibri,Calibri_MSFontService,sans-serif" font-weight="400" font-size="41" transform="matrix(0.350152 0 0 0.349764 313.901 250)">°</text><text fill="#595959" font-family="Calibri,Calibri_MSFontService,sans-serif" font-weight="400" font-size="41" transform="matrix(0.350152 0 0 0.349764 288.34 184)">30</text><text fill="#595959" font-family="Calibri,Calibri_MSFontService,sans-serif" font-weight="400" font-size="41" transform="matrix(0.350152 0 0 0.349764 303.047 184)">,</text><text fill="#595959" font-family="Calibri,Calibri_MSFontService,sans-serif" font-weight="400" font-size="41" transform="matrix(0.350152 0 0 0.349764 306.548 184)">0</text><text fill="#595959" font-family="Calibri,Calibri_MSFontService,sans-serif" font-weight="400" font-size="41" transform="matrix(0.350152 0 0 0.349764 313.901 184)">°</text><text fill="#595959" font-family="Calibri,Calibri_MSFontService,sans-serif" font-weight="400" font-size="41" transform="matrix(0.350152 0 0 0.349764 288.34 118)">35</text><text fill="#595959" font-family="Calibri,Calibri_MSFontService,sans-serif" font-weight="400" font-size="41" transform="matrix(0.350152 0 0 0.349764 303.047 118)">,</text><text fill="#595959" font-family="Calibri,Calibri_MSFontService,sans-serif" font-weight="400" font-size="41" transform="matrix(0.350152 0 0 0.349764 306.548 118)">0</text><text fill="#595959" font-family="Calibri,Calibri_MSFontService,sans-serif" font-weight="400" font-size="41" transform="matrix(0.350152 0 0 0.349764 313.901 118)">°</text><text fill="#595959" font-family="Calibri,Calibri_MSFontService,sans-serif" font-weight="400" font-size="41" transform="matrix(0.350152 0 0 0.349764 342.586 599)">1</text><text fill="#595959" font-family="Calibri,Calibri_MSFontService,sans-serif" font-weight="400" font-size="41" transform="matrix(0.350152 0 0 0.349764 370.692 599)">2</text><text fill="#595959" font-family="Calibri,Calibri_MSFontService,sans-serif" font-weight="400" font-size="41" transform="matrix(0.350152 0 0 0.349764 398.799 599)">3</text><text fill="#595959" font-family="Calibri,Calibri_MSFontService,sans-serif" font-weight="400" font-size="41" transform="matrix(0.350152 0 0 0.349764 426.906 599)">4</text><text fill="#595959" font-family="Calibri,Calibri_MSFontService,sans-serif" font-weight="400" font-size="41" transform="matrix(0.350152 0 0 0.349764 455.012 599)">5</text><text fill="#595959" font-family="Calibri,Calibri_MSFontService,sans-serif" font-weight="400" font-size="41" transform="matrix(0.350152 0 0 0.349764 483.119 599)">6</text><text fill="#595959" font-family="Calibri,Calibri_MSFontService,sans-serif" font-weight="400" font-size="41" transform="matrix(0.350152 0 0 0.349764 511.226 599)">7</text><text fill="#595959" font-family="Calibri,Calibri_MSFontService,sans-serif" font-weight="400" font-size="41" transform="matrix(0.350152 0 0 0.349764 539.333 599)">8</text><text fill="#595959" font-family="Calibri,Calibri_MSFontService,sans-serif" font-weight="400" font-size="41" transform="matrix(0.350152 0 0 0.349764 567.439 599)">9</text><text fill="#595959" font-family="Calibri,Calibri_MSFontService,sans-serif" font-weight="400" font-size="41" transform="matrix(0.350152 0 0 0.349764 591.887 599)">10</text><text fill="#595959" font-family="Calibri,Calibri_MSFontService,sans-serif" font-weight="400" font-size="41" transform="matrix(0.350152 0 0 0.349764 619.993 599)">11</text><text fill="#595959" font-family="Calibri,Calibri_MSFontService,sans-serif" font-weight="400" font-size="41" transform="matrix(0.350152 0 0 0.349764 648.1 599)">12</text><text fill="#595959" font-family="Calibri,Calibri_MSFontService,sans-serif" font-weight="400" font-size="41" transform="matrix(0.350152 0 0 0.349764 676.207 599)">13</text><text fill="#595959" font-family="Calibri,Calibri_MSFontService,sans-serif" font-weight="400" font-size="41" transform="matrix(0.350152 0 0 0.349764 704.317 599)">14</text><text fill="#595959" font-family="Calibri,Calibri_MSFontService,sans-serif" font-weight="400" font-size="41" transform="matrix(0.350152 0 0 0.349764 732.424 599)">15</text><text fill="#595959" font-family="Calibri,Calibri_MSFontService,sans-serif" font-weight="400" font-size="41" transform="matrix(0.350152 0 0 0.349764 760.53 599)">16</text><text fill="#595959" font-family="Calibri,Calibri_MSFontService,sans-serif" font-weight="400" font-size="41" transform="matrix(0.350152 0 0 0.349764 788.637 599)">17</text><text fill="#595959" font-family="Calibri,Calibri_MSFontService,sans-serif" font-weight="400" font-size="41" transform="matrix(0.350152 0 0 0.349764 816.744 599)">18</text><text fill="#595959" font-family="Calibri,Calibri_MSFontService,sans-serif" font-weight="400" font-size="41" transform="matrix(0.350152 0 0 0.349764 844.85 599)">19</text><text fill="#595959" font-family="Calibri,Calibri_MSFontService,sans-serif" font-weight="400" font-size="41" transform="matrix(0.350152 0 0 0.349764 872.957 599)">20</text><text fill="#595959" font-family="Calibri,Calibri_MSFontService,sans-serif" font-weight="400" font-size="41" transform="matrix(0.350152 0 0 0.349764 901.064 599)">21</text><text fill="#595959" font-family="Calibri,Calibri_MSFontService,sans-serif" font-weight="400" font-size="41" transform="matrix(0.350152 0 0 0.349764 929.17 599)">22</text><text fill="#595959" font-family="Calibri,Calibri_MSFontService,sans-serif" font-weight="400" font-size="41" transform="matrix(0.350152 0 0 0.349764 957.277 599)">23</text><text fill="#595959" font-family="Calibri,Calibri_MSFontService,sans-serif" font-weight="400" font-size="41" transform="matrix(0.350152 0 0 0.349764 985.384 599)">24</text><path d="M773.327 264.421 804.107 264.421" stroke="#ED7D31" stroke-width="3.60694" stroke-linecap="round" stroke-linejoin="round" stroke-miterlimit="10" fill="none" fill-rule="evenodd" transform="matrix(1.00111 0 0 1 -654.678 36.1904)"/><text fill="#595959" font-family="Calibri,Calibri_MSFontService,sans-serif" font-weight="400" font-size="41" transform="matrix(0.350152 0 0 0.349764 153.57 305)">Activation</text><path d="M773.327 291.703 804.107 291.703" stroke="#FFD966" stroke-width="3.60694" stroke-linecap="round" stroke-linejoin="round" stroke-miterlimit="10" fill="none" fill-rule="evenodd" transform="matrix(1.00111 0 0 1 -654.678 36.1904)"/><text fill="#595959" font-family="Calibri,Calibri_MSFontService,sans-serif" font-weight="400" font-size="41" transform="matrix(0.350152 0 0 0.349764 153.57 332)">Hysteresis</text><path d="M773.327 318.635 804.107 318.635" stroke="#4472C4" stroke-width="3.60694" stroke-linecap="round" stroke-linejoin="round" stroke-miterlimit="10" fill="none" fill-rule="evenodd" transform="matrix(1.00111 0 0 1 -654.678 36.1904)"/><text fill="#595959" font-family="Calibri,Calibri_MSFontService,sans-serif" font-weight="400" font-size="41" transform="matrix(0.350152 0 0 0.349764 153.57 359)">Temperature flow</text><path d="M773.327 345.566 804.107 345.566" stroke="#5B9BD5" stroke-width="3.60694" stroke-linecap="round" stroke-linejoin="round" stroke-miterlimit="10" fill="none" fill-rule="evenodd" transform="matrix(1.00111 0 0 1 -654.678 36.1904)"/><text fill="#595959" font-family="Calibri,Calibri_MSFontService,sans-serif" font-weight="400" font-size="41" transform="matrix(0.350152 0 0 0.349764 153.57 386)">Temperature return</text><path d="M773.327 372.848 804.107 372.848" stroke="#70AD47" stroke-width="3.60694" stroke-linecap="round" stroke-linejoin="round" stroke-miterlimit="10" fill="none" fill-rule="evenodd" transform="matrix(1.00111 0 0 1 -654.678 36.1904)"/><text fill="#595959" font-family="Calibri,Calibri_MSFontService,sans-serif" font-weight="400" font-size="41" transform="matrix(0.350152 0 0 0.349764 153.57 413)">∆</text><text fill="#595959" font-family="Calibri,Calibri_MSFontService,sans-serif" font-weight="400" font-size="41" transform="matrix(0.350152 0 0 0.349764 161.624 413)">T</text><path d="M756.364 60.3342 1677.29 60.3342 1677.29 577.285 756.364 577.285Z" stroke="#D9D9D9" stroke-width="1.20231" stroke-linejoin="round" stroke-miterlimit="10" fill="none" transform="matrix(1.00111 0 0 1 -654.678 36.1904)"/><text font-family="Calibri,Calibri_MSFontService,sans-serif" font-weight="400" font-size="50" transform="matrix(0.350152 0 0 0.349764 627.144 401)">Pump activated</text></g></svg>