<svg width="2636" height="1481" xmlns="http://www.w3.org/2000/svg" xmlns:xlink="http://www.w3.org/1999/xlink" xml:space="preserve" overflow="hidden"><defs><clipPath id="clip0"><rect x="1336" y="171" width="2636" height="1481"/></clipPath><clipPath id="clip1"><rect x="1877" y="222" width="2046" height="1325"/></clipPath></defs><g clip-path="url(#clip0)" transform="translate(-1336 -171)"><rect x="1337" y="172" width="2633" height="1478" fill="#FFFFFF"/><g><path d="M1877.5 1354.54 3919.5 1354.54M1877.5 1166.54 3919.5 1166.54M1877.5 977.532 3919.5 977.532M1877.5 788.526 3919.5 788.526M1877.5 599.52 3919.5 599.52M1877.5 411.514 3919.5 411.514M1877.5 222.5 3919.5 222.5" stroke="#D9D9D9" stroke-width="3.4375" stroke-linejoin="round" stroke-miterlimit="10" fill="none"/></g><g clip-path="url(#clip1)"><path d="M1920 1732 2005.07 1732 2090.07 1732 2175.07 1732 2260.07 1732 2346.08 1732 2431.08 1732 2516.08 1732 2516.08 600.02 2601.09 1242.04 2686.09 1279.04 2771.09 1279.04 2856.09 1166.04 2941.1 1128.04 3026.1 789.026 3111.1 600.02 3196.1 562.018 3282.11 902.03 3367.11 1015.03 3452.11 977.032 3537.12 789.026 3622.12 524 3622.12 1732 3707.12 1732 3792.12 1732 3877 1732 3877 1544.05 3792.12 1544.05 3707.12 1544.05 3622.12 1544.05 3622.12 1544.05 3537.12 1544.05 3452.11 1544.05 3367.11 1544.05 3282.11 1544.05 3196.1 1544.05 3111.1 1544.05 3026.1 1544.05 2941.1 1544.05 2856.09 1544.05 2771.09 1544.05 2686.09 1544.05 2601.09 1544.05 2516.08 1544.05 2516.08 1544.05 2431.08 1544.05 2346.08 1544.05 2260.07 1544.05 2175.07 1544.05 2090.07 1544.05 2005.07 1544.05 1920 1544.05Z" fill="#A9D18E"/></g><g><path d="M1877.5 1543.5 3919.5 1543.5" stroke="#D9D9D9" stroke-width="3.4375" stroke-linejoin="round" stroke-miterlimit="10" fill="none" fill-rule="evenodd"/></g><g><path d="M1920 373 2005.07 373 2090.07 373 2175.07 373 2260.07 373 2346.08 373 2431.08 373 2516.08 600.02 2601.09 1242.04 2686.09 1279 2771.09 1279 2856.09 1166.04 2941.1 1128.04 3026.1 789.026 3111.1 600.02 3196.1 562.018 3282.11 902.03 3367.11 1015.03 3452.11 977.032 3537.12 789.026 3622.12 524.017 3707.12 373 3792.12 373 3877 373" stroke="#4472C4" stroke-width="10.3125" stroke-linecap="round" stroke-linejoin="round" stroke-miterlimit="10" fill="none"/></g><g><path d="M1920 600C1948.36 600 1976.72 600 2005.09 600 2033.45 600 2061.81 600 2090.17 600 2118.54 600 2146.9 600 2175.26 600 2203.62 600 2231.99 600 2260.35 600 2288.71 600 2317.07 600 2345.43 600 2373.8 600 2402.16 600 2430.52 600 2458.88 600 2487.25 600 2515.61 600 2543.97 600 2572.33 600 2600.7 600 2629.06 600 2657.42 600 2685.78 600 2714.15 600 2742.51 600 2770.87 600 2799.23 600 2827.59 600 2855.96 600 2884.32 600 2912.68 600 2941.04 600 2969.41 600 2997.77 600 3026.13 600 3054.49 600 3082.85 600 3111.22 600 3139.58 600 3167.94 600 3196.3 600 3224.67 600 3253.03 600 3281.39 600 3309.75 600 3338.12 600 3366.48 600 3394.84 600 3423.2 600 3451.57 600 3479.93 600 3508.29 600 3536.65 600 3565.01 600 3593.38 600 3621.74 600 3650.1 600 3678.46 600 3706.83 600 3735.19 600 3763.55 600 3791.91 600 3820.28 600 3848.64 600 3877 600" stroke="#ED7D31" stroke-width="10.3125" stroke-linecap="round" stroke-linejoin="round" stroke-miterlimit="10" fill="none"/></g><g><path d="M1920 524C1948.36 524 1976.72 524 2005.09 524 2033.45 524 2061.81 524 2090.17 524 2118.54 524 2146.9 524 2175.26 524 2203.62 524 2231.99 524 2260.35 524 2288.71 524 2317.07 524 2345.43 524 2373.8 524 2402.16 524 2430.52 524 2458.88 524 2487.25 524 2515.61 524 2543.97 524 2572.33 524 2600.7 524 2629.06 524 2657.42 524 2685.78 524 2714.15 524 2742.51 524 2770.87 524 2799.23 524 2827.59 524 2855.96 524 2884.32 524 2912.68 524 2941.04 524 2969.41 524 2997.77 524 3026.13 524 3054.49 524 3082.85 524 3111.22 524 3139.58 524 3167.94 524 3196.3 524 3224.67 524 3253.03 524 3281.39 524 3309.75 524 3338.12 524 3366.48 524 3394.84 524 3423.2 524 3451.57 524 3479.93 524 3508.29 524 3536.65 524 3565.01 524 3593.38 524 3621.74 524 3650.1 524 3678.46 524 3706.83 524 3735.19 524 3763.55 524 3791.91 524 3820.28 524 3848.64 524 3877 524" stroke="#FFD966" stroke-width="10.3125" stroke-linecap="round" stroke-linejoin="round" stroke-miterlimit="10" fill="none"/></g><g><text fill="#595959" font-family="Calibri,Calibri_MSFontService,sans-serif" font-weight="400" font-size="41" transform="matrix(1 0 0 1 1773.25 1555)">5,0°</text></g><g><text fill="#595959" font-family="Calibri,Calibri_MSFontService,sans-serif" font-weight="400" font-size="41" transform="matrix(1 0 0 1 1752.35 1366)">10,0°</text></g><g><text fill="#595959" font-family="Calibri,Calibri_MSFontService,sans-serif" font-weight="400" font-size="41" transform="matrix(1 0 0 1 1752.35 1178)">15,0°</text></g><g><text fill="#595959" font-family="Calibri,Calibri_MSFontService,sans-serif" font-weight="400" font-size="41" transform="matrix(1 0 0 1 1752.35 989)">20,0°</text></g><g><text fill="#595959" font-family="Calibri,Calibri_MSFontService,sans-serif" font-weight="400" font-size="41" transform="matrix(1 0 0 1 1752.35 800)">25,0°</text></g><g><text fill="#595959" font-family="Calibri,Calibri_MSFontService,sans-serif" font-weight="400" font-size="41" transform="matrix(1 0 0 1 1752.35 611)">30,0°</text></g><g><text fill="#595959" font-family="Calibri,Calibri_MSFontService,sans-serif" font-weight="400" font-size="41" transform="matrix(1 0 0 1 1752.35 423)">35,0°</text></g><g><text fill="#595959" font-family="Calibri,Calibri_MSFontService,sans-serif" font-weight="400" font-size="41" transform="matrix(1 0 0 1 1752.35 234)">40,0°</text></g><g><text fill="#595959" font-family="Calibri,Calibri_MSFontService,sans-serif" font-weight="400" font-size="41" transform="matrix(1 0 0 1 1909.68 1609)">1</text></g><g><text fill="#595959" font-family="Calibri,Calibri_MSFontService,sans-serif" font-weight="400" font-size="41" transform="matrix(1 0 0 1 1994.78 1609)">2</text></g><g><text fill="#595959" font-family="Calibri,Calibri_MSFontService,sans-serif" font-weight="400" font-size="41" transform="matrix(1 0 0 1 2079.87 1609)">3</text></g><g><text fill="#595959" font-family="Calibri,Calibri_MSFontService,sans-serif" font-weight="400" font-size="41" transform="matrix(1 0 0 1 2164.97 1609)">4</text></g><g><text fill="#595959" font-family="Calibri,Calibri_MSFontService,sans-serif" font-weight="400" font-size="41" transform="matrix(1 0 0 1 2250.07 1609)">5</text></g><g><text fill="#595959" font-family="Calibri,Calibri_MSFontService,sans-serif" font-weight="400" font-size="41" transform="matrix(1 0 0 1 2335.16 1609)">6</text></g><g><text fill="#595959" font-family="Calibri,Calibri_MSFontService,sans-serif" font-weight="400" font-size="41" transform="matrix(1 0 0 1 2420.26 1609)">7</text></g><g><text fill="#595959" font-family="Calibri,Calibri_MSFontService,sans-serif" font-weight="400" font-size="41" transform="matrix(1 0 0 1 2505.36 1609)">8</text></g><g><text fill="#595959" font-family="Calibri,Calibri_MSFontService,sans-serif" font-weight="400" font-size="41" transform="matrix(1 0 0 1 2590.45 1609)">9</text></g><g><text fill="#595959" font-family="Calibri,Calibri_MSFontService,sans-serif" font-weight="400" font-size="41" transform="matrix(1 0 0 1 2665.1 1609)">10</text></g><g><text fill="#595959" font-family="Calibri,Calibri_MSFontService,sans-serif" font-weight="400" font-size="41" transform="matrix(1 0 0 1 2750.19 1609)">11</text></g><g><text fill="#595959" font-family="Calibri,Calibri_MSFontService,sans-serif" font-weight="400" font-size="41" transform="matrix(1 0 0 1 2835.29 1609)">12</text></g><g><text fill="#595959" font-family="Calibri,Calibri_MSFontService,sans-serif" font-weight="400" font-size="41" transform="matrix(1 0 0 1 2920.39 1609)">13</text></g><g><text fill="#595959" font-family="Calibri,Calibri_MSFontService,sans-serif" font-weight="400" font-size="41" transform="matrix(1 0 0 1 3005.48 1609)">14</text></g><g><text fill="#595959" font-family="Calibri,Calibri_MSFontService,sans-serif" font-weight="400" font-size="41" transform="matrix(1 0 0 1 3090.58 1609)">15</text></g><g><text fill="#595959" font-family="Calibri,Calibri_MSFontService,sans-serif" font-weight="400" font-size="41" transform="matrix(1 0 0 1 3175.68 1609)">16</text></g><g><text fill="#595959" font-family="Calibri,Calibri_MSFontService,sans-serif" font-weight="400" font-size="41" transform="matrix(1 0 0 1 3260.77 1609)">17</text></g><g><text fill="#595959" font-family="Calibri,Calibri_MSFontService,sans-serif" font-weight="400" font-size="41" transform="matrix(1 0 0 1 3345.87 1609)">18</text></g><g><text fill="#595959" font-family="Calibri,Calibri_MSFontService,sans-serif" font-weight="400" font-size="41" transform="matrix(1 0 0 1 3430.97 1609)">19</text></g><g><text fill="#595959" font-family="Calibri,Calibri_MSFontService,sans-serif" font-weight="400" font-size="41" transform="matrix(1 0 0 1 3516.06 1609)">20</text></g><g><text fill="#595959" font-family="Calibri,Calibri_MSFontService,sans-serif" font-weight="400" font-size="41" transform="matrix(1 0 0 1 3601.16 1609)">21</text></g><g><text fill="#595959" font-family="Calibri,Calibri_MSFontService,sans-serif" font-weight="400" font-size="41" transform="matrix(1 0 0 1 3686.25 1609)">22</text></g><g><text fill="#595959" font-family="Calibri,Calibri_MSFontService,sans-serif" font-weight="400" font-size="41" transform="matrix(1 0 0 1 3771.35 1609)">23</text></g><g><text fill="#595959" font-family="Calibri,Calibri_MSFontService,sans-serif" font-weight="400" font-size="41" transform="matrix(1 0 0 1 3856.45 1609)">24</text></g><g><path d="M1386 834 1474 834" stroke="#4472C4" stroke-width="10.3125" stroke-linecap="round" stroke-linejoin="round" stroke-miterlimit="10" fill="none" fill-rule="evenodd"/></g><g><text fill="#595959" font-family="Calibri,Calibri_MSFontService,sans-serif" font-weight="400" font-size="41" transform="matrix(1 0 0 1 1483.28 845)">Temperature</text></g><g><path d="M1386 911 1474 911" stroke="#ED7D31" stroke-width="10.3125" stroke-linecap="round" stroke-linejoin="round" stroke-miterlimit="10" fill="none" fill-rule="evenodd"/></g><g><text fill="#595959" font-family="Calibri,Calibri_MSFontService,sans-serif" font-weight="400" font-size="41" transform="matrix(1 0 0 1 1483.28 922)">Activation</text></g><g><path d="M1386 988 1474 988" stroke="#FFD966" stroke-width="10.3125" stroke-linecap="round" stroke-linejoin="round" stroke-miterlimit="10" fill="none" fill-rule="evenodd"/></g><g><text fill="#595959" font-family="Calibri,Calibri_MSFontService,sans-serif" font-weight="400" font-size="41" transform="matrix(1 0 0 1 1483.28 1000)">Hysteresis</text></g><rect x="1337.5" y="172.5" width="2633" height="1478" stroke="#D9D9D9" stroke-width="3.4375" stroke-linejoin="round" stroke-miterlimit="10" fill="none"/><text font-family="Calibri,Calibri_MSFontService,sans-serif" font-weight="400" font-size="50" transform="matrix(1 0 0 1 2909.67 1230)">Pump activated</text></g></svg>