<svg width="922" height="518" xmlns="http://www.w3.org/2000/svg" xmlns:xlink="http://www.w3.org/1999/xlink" xml:space="preserve" overflow="hidden"><defs><clipPath id="clip0"><rect x="92" y="64" width="922" height="518"/></clipPath><clipPath id="clip1"><rect x="281" y="81" width="716" height="465"/></clipPath></defs><g clip-path="url(#clip0)" transform="translate(-92 -64)"><path d="M467.634 60.1594 1388.56 60.1594 1388.56 577.11 467.634 577.11Z" fill="#FFFFFF" transform="matrix(1.00002 0 0 1 -375.296 4.19041)"/><path d="M656.681 473.769 1370.9 473.769M656.681 408.013 1370.9 408.013M656.681 341.905 1370.9 341.905M656.681 275.798 1370.9 275.798M656.681 209.69 1370.9 209.69M656.681 143.933 1370.9 143.933M656.681 77.8224 1370.9 77.8224" stroke="#D9D9D9" stroke-width="1.20231" stroke-linejoin="round" stroke-miterlimit="10" fill="none" transform="matrix(1.00002 0 0 1 -375.296 4.19041)"/><g clip-path="url(#clip1)"><path d="M671.546 738.001 701.301 738.001 731.031 738.001 760.76 738.001 790.49 738.001 820.574 738.001 850.303 738.001 880.033 738.001 880.033 341.73 909.767 117.524 939.497 104.23 969.227 104.23 998.957 143.757 1028.69 157.049 1058.42 275.973 1088.15 341.73 1117.88 355.021 1147.96 236.098 1177.69 196.573 1207.42 209.865 1237.16 275.973 1266.89 368.312 1266.89 738.001 1296.62 738.001 1326.35 738.001 1356.03 738.001 1356.03 540.053 1326.35 540.053 1296.62 540.053 1266.89 540.053 1266.89 540.053 1237.16 540.053 1207.42 540.053 1177.69 540.053 1147.96 540.053 1117.88 540.053 1088.15 540.053 1058.42 540.053 1028.69 540.053 998.957 540.053 969.227 540.053 939.497 540.053 909.767 540.053 880.033 540.053 880.033 540.053 850.303 540.053 820.574 540.053 790.49 540.053 760.76 540.053 731.031 540.053 701.301 540.053 671.546 540.053Z" fill="#A9D18E" transform="matrix(1.00002 0 0 1 -375.296 4.19041)"/></g><path d="M656.681 539.86 1370.9 539.86" stroke="#D9D9D9" stroke-width="1.20231" stroke-linejoin="round" stroke-miterlimit="10" fill="none" fill-rule="evenodd" transform="matrix(1.00002 0 0 1 -375.296 4.19041)"/><path d="M671.546 341.719C681.466 341.719 691.385 341.719 701.308 341.719 711.227 341.719 721.146 341.719 731.065 341.719 740.988 341.719 750.908 341.719 760.827 341.719 770.746 341.719 780.669 341.719 790.588 341.719 800.508 341.719 810.427 341.719 820.346 341.719 830.269 341.719 840.188 341.719 850.108 341.719 860.027 341.719 869.95 341.719 879.869 341.719 889.788 341.719 899.708 341.719 909.63 341.719 919.55 341.719 929.469 341.719 939.388 341.719 949.311 341.719 959.23 341.719 969.15 341.719 979.069 341.719 988.988 341.719 998.911 341.719 1008.83 341.719 1018.75 341.719 1028.67 341.719 1038.59 341.719 1048.51 341.719 1058.43 341.719 1068.35 341.719 1078.27 341.719 1088.19 341.719 1098.11 341.719 1108.03 341.719 1117.95 341.719 1127.87 341.719 1137.79 341.719 1147.71 341.719 1157.63 341.719 1167.55 341.719 1177.47 341.719 1187.39 341.719 1197.31 341.719 1207.23 341.719 1217.15 341.719 1227.07 341.719 1236.99 341.719 1246.91 341.719 1256.83 341.719 1266.75 341.719 1276.67 341.719 1286.59 341.719 1296.51 341.719 1306.43 341.719 1316.35 341.719 1326.27 341.719 1336.2 341.719 1346.11 341.719 1356.03 341.719" stroke="#ED7D31" stroke-width="3.60694" stroke-linecap="round" stroke-linejoin="round" stroke-miterlimit="10" fill="none" transform="matrix(1.00002 0 0 1 -375.296 4.19041)"/><path d="M671.546 368.301C681.466 368.301 691.385 368.301 701.308 368.301 711.227 368.301 721.146 368.301 731.065 368.301 740.988 368.301 750.908 368.301 760.827 368.301 770.746 368.301 780.669 368.301 790.588 368.301 800.508 368.301 810.427 368.301 820.346 368.301 830.269 368.301 840.188 368.301 850.108 368.301 860.027 368.301 869.95 368.301 879.869 368.301 889.788 368.301 899.708 368.301 909.63 368.301 919.55 368.301 929.469 368.301 939.388 368.301 949.311 368.301 959.23 368.301 969.15 368.301 979.069 368.301 988.988 368.301 998.911 368.301 1008.83 368.301 1018.75 368.301 1028.67 368.301 1038.59 368.301 1048.51 368.301 1058.43 368.301 1068.35 368.301 1078.27 368.301 1088.19 368.301 1098.11 368.301 1108.03 368.301 1117.95 368.301 1127.87 368.301 1137.79 368.301 1147.71 368.301 1157.63 368.301 1167.55 368.301 1177.47 368.301 1187.39 368.301 1197.31 368.301 1207.23 368.301 1217.15 368.301 1227.07 368.301 1236.99 368.301 1246.91 368.301 1256.83 368.301 1266.75 368.301 1276.67 368.301 1286.59 368.301 1296.51 368.301 1306.43 368.301 1316.35 368.301 1326.27 368.301 1336.2 368.301 1346.11 368.301 1356.03 368.301" stroke="#FFD966" stroke-width="3.60694" stroke-linecap="round" stroke-linejoin="round" stroke-miterlimit="10" fill="none" transform="matrix(1.00002 0 0 1 -375.296 4.19041)"/><path d="M671.546 421.115 701.301 421.115 731.031 421.115 760.76 421.115 790.49 421.115 820.574 421.115 850.303 421.115 880.033 341.73 909.767 117.524 939.497 104.23 969.227 104.23 998.957 143.757 1028.69 157.049 1058.42 275.973 1088.15 341.73 1117.88 355.021 1147.96 236.098 1177.69 196.573 1207.42 209.865 1237.16 275.973 1266.89 368.312 1296.62 421.115 1326.35 421.115 1356.03 421.115" stroke="#4472C4" stroke-width="3.60694" stroke-linecap="round" stroke-linejoin="round" stroke-miterlimit="10" fill="none" transform="matrix(1.00002 0 0 1 -375.296 4.19041)"/><text fill="#595959" font-family="Calibri,Calibri_MSFontService,sans-serif" font-weight="400" font-size="41" transform="matrix(0.349772 0 0 0.349764 237.628 548)">15</text><text fill="#595959" font-family="Calibri,Calibri_MSFontService,sans-serif" font-weight="400" font-size="41" transform="matrix(0.349772 0 0 0.349764 252.318 548)">,</text><text fill="#595959" font-family="Calibri,Calibri_MSFontService,sans-serif" font-weight="400" font-size="41" transform="matrix(0.349772 0 0 0.349764 255.816 548)">0</text><text fill="#595959" font-family="Calibri,Calibri_MSFontService,sans-serif" font-weight="400" font-size="41" transform="matrix(0.349772 0 0 0.349764 263.161 548)">°</text><text fill="#595959" font-family="Calibri,Calibri_MSFontService,sans-serif" font-weight="400" font-size="41" transform="matrix(0.349772 0 0 0.349764 237.628 482)">20</text><text fill="#595959" font-family="Calibri,Calibri_MSFontService,sans-serif" font-weight="400" font-size="41" transform="matrix(0.349772 0 0 0.349764 252.318 482)">,</text><text fill="#595959" font-family="Calibri,Calibri_MSFontService,sans-serif" font-weight="400" font-size="41" transform="matrix(0.349772 0 0 0.349764 255.816 482)">0</text><text fill="#595959" font-family="Calibri,Calibri_MSFontService,sans-serif" font-weight="400" font-size="41" transform="matrix(0.349772 0 0 0.349764 263.161 482)">°</text><text fill="#595959" font-family="Calibri,Calibri_MSFontService,sans-serif" font-weight="400" font-size="41" transform="matrix(0.349772 0 0 0.349764 237.628 416)">25</text><text fill="#595959" font-family="Calibri,Calibri_MSFontService,sans-serif" font-weight="400" font-size="41" transform="matrix(0.349772 0 0 0.349764 252.318 416)">,</text><text fill="#595959" font-family="Calibri,Calibri_MSFontService,sans-serif" font-weight="400" font-size="41" transform="matrix(0.349772 0 0 0.349764 255.816 416)">0</text><text fill="#595959" font-family="Calibri,Calibri_MSFontService,sans-serif" font-weight="400" font-size="41" transform="matrix(0.349772 0 0 0.349764 263.161 416)">°</text><text fill="#595959" font-family="Calibri,Calibri_MSFontService,sans-serif" font-weight="400" font-size="41" transform="matrix(0.349772 0 0 0.349764 237.628 350)">30</text><text fill="#595959" font-family="Calibri,Calibri_MSFontService,sans-serif" font-weight="400" font-size="41" transform="matrix(0.349772 0 0 0.349764 252.318 350)">,</text><text fill="#595959" font-family="Calibri,Calibri_MSFontService,sans-serif" font-weight="400" font-size="41" transform="matrix(0.349772 0 0 0.349764 255.816 350)">0</text><text fill="#595959" font-family="Calibri,Calibri_MSFontService,sans-serif" font-weight="400" font-size="41" transform="matrix(0.349772 0 0 0.349764 263.161 350)">°</text><text fill="#595959" font-family="Calibri,Calibri_MSFontService,sans-serif" font-weight="400" font-size="41" transform="matrix(0.349772 0 0 0.349764 237.628 284)">35</text><text fill="#595959" font-family="Calibri,Calibri_MSFontService,sans-serif" font-weight="400" font-size="41" transform="matrix(0.349772 0 0 0.349764 252.318 284)">,</text><text fill="#595959" font-family="Calibri,Calibri_MSFontService,sans-serif" font-weight="400" font-size="41" transform="matrix(0.349772 0 0 0.349764 255.816 284)">0</text><text fill="#595959" font-family="Calibri,Calibri_MSFontService,sans-serif" font-weight="400" font-size="41" transform="matrix(0.349772 0 0 0.349764 263.161 284)">°</text><text fill="#595959" font-family="Calibri,Calibri_MSFontService,sans-serif" font-weight="400" font-size="41" transform="matrix(0.349772 0 0 0.349764 237.628 218)">40</text><text fill="#595959" font-family="Calibri,Calibri_MSFontService,sans-serif" font-weight="400" font-size="41" transform="matrix(0.349772 0 0 0.349764 252.318 218)">,</text><text fill="#595959" font-family="Calibri,Calibri_MSFontService,sans-serif" font-weight="400" font-size="41" transform="matrix(0.349772 0 0 0.349764 255.816 218)">0</text><text fill="#595959" font-family="Calibri,Calibri_MSFontService,sans-serif" font-weight="400" font-size="41" transform="matrix(0.349772 0 0 0.349764 263.161 218)">°</text><text fill="#595959" font-family="Calibri,Calibri_MSFontService,sans-serif" font-weight="400" font-size="41" transform="matrix(0.349772 0 0 0.349764 237.628 152)">45</text><text fill="#595959" font-family="Calibri,Calibri_MSFontService,sans-serif" font-weight="400" font-size="41" transform="matrix(0.349772 0 0 0.349764 252.318 152)">,</text><text fill="#595959" font-family="Calibri,Calibri_MSFontService,sans-serif" font-weight="400" font-size="41" transform="matrix(0.349772 0 0 0.349764 255.816 152)">0</text><text fill="#595959" font-family="Calibri,Calibri_MSFontService,sans-serif" font-weight="400" font-size="41" transform="matrix(0.349772 0 0 0.349764 263.161 152)">°</text><text fill="#595959" font-family="Calibri,Calibri_MSFontService,sans-serif" font-weight="400" font-size="41" transform="matrix(0.349772 0 0 0.349764 237.628 86)">50</text><text fill="#595959" font-family="Calibri,Calibri_MSFontService,sans-serif" font-weight="400" font-size="41" transform="matrix(0.349772 0 0 0.349764 252.318 86)">,</text><text fill="#595959" font-family="Calibri,Calibri_MSFontService,sans-serif" font-weight="400" font-size="41" transform="matrix(0.349772 0 0 0.349764 255.816 86)">0</text><text fill="#595959" font-family="Calibri,Calibri_MSFontService,sans-serif" font-weight="400" font-size="41" transform="matrix(0.349772 0 0 0.349764 263.161 86)">°</text><text fill="#595959" font-family="Calibri,Calibri_MSFontService,sans-serif" font-weight="400" font-size="41" transform="matrix(0.349772 0 0 0.349764 292.657 567)">1</text><text fill="#595959" font-family="Calibri,Calibri_MSFontService,sans-serif" font-weight="400" font-size="41" transform="matrix(0.349772 0 0 0.349764 322.423 567)">2</text><text fill="#595959" font-family="Calibri,Calibri_MSFontService,sans-serif" font-weight="400" font-size="41" transform="matrix(0.349772 0 0 0.349764 352.185 567)">3</text><text fill="#595959" font-family="Calibri,Calibri_MSFontService,sans-serif" font-weight="400" font-size="41" transform="matrix(0.349772 0 0 0.349764 381.951 567)">4</text><text fill="#595959" font-family="Calibri,Calibri_MSFontService,sans-serif" font-weight="400" font-size="41" transform="matrix(0.349772 0 0 0.349764 411.716 567)">5</text><text fill="#595959" font-family="Calibri,Calibri_MSFontService,sans-serif" font-weight="400" font-size="41" transform="matrix(0.349772 0 0 0.349764 441.479 567)">6</text><text fill="#595959" font-family="Calibri,Calibri_MSFontService,sans-serif" font-weight="400" font-size="41" transform="matrix(0.349772 0 0 0.349764 471.244 567)">7</text><text fill="#595959" font-family="Calibri,Calibri_MSFontService,sans-serif" font-weight="400" font-size="41" transform="matrix(0.349772 0 0 0.349764 501.01 567)">8</text><text fill="#595959" font-family="Calibri,Calibri_MSFontService,sans-serif" font-weight="400" font-size="41" transform="matrix(0.349772 0 0 0.349764 530.772 567)">9</text><text fill="#595959" font-family="Calibri,Calibri_MSFontService,sans-serif" font-weight="400" font-size="41" transform="matrix(0.349772 0 0 0.349764 556.882 567)">10</text><text fill="#595959" font-family="Calibri,Calibri_MSFontService,sans-serif" font-weight="400" font-size="41" transform="matrix(0.349772 0 0 0.349764 586.645 567)">11</text><text fill="#595959" font-family="Calibri,Calibri_MSFontService,sans-serif" font-weight="400" font-size="41" transform="matrix(0.349772 0 0 0.349764 616.41 567)">12</text><text fill="#595959" font-family="Calibri,Calibri_MSFontService,sans-serif" font-weight="400" font-size="41" transform="matrix(0.349772 0 0 0.349764 646.176 567)">13</text><text fill="#595959" font-family="Calibri,Calibri_MSFontService,sans-serif" font-weight="400" font-size="41" transform="matrix(0.349772 0 0 0.349764 675.938 567)">14</text><text fill="#595959" font-family="Calibri,Calibri_MSFontService,sans-serif" font-weight="400" font-size="41" transform="matrix(0.349772 0 0 0.349764 705.704 567)">15</text><text fill="#595959" font-family="Calibri,Calibri_MSFontService,sans-serif" font-weight="400" font-size="41" transform="matrix(0.349772 0 0 0.349764 735.469 567)">16</text><text fill="#595959" font-family="Calibri,Calibri_MSFontService,sans-serif" font-weight="400" font-size="41" transform="matrix(0.349772 0 0 0.349764 765.231 567)">17</text><text fill="#595959" font-family="Calibri,Calibri_MSFontService,sans-serif" font-weight="400" font-size="41" transform="matrix(0.349772 0 0 0.349764 794.997 567)">18</text><text fill="#595959" font-family="Calibri,Calibri_MSFontService,sans-serif" font-weight="400" font-size="41" transform="matrix(0.349772 0 0 0.349764 824.763 567)">19</text><text fill="#595959" font-family="Calibri,Calibri_MSFontService,sans-serif" font-weight="400" font-size="41" transform="matrix(0.349772 0 0 0.349764 854.525 567)">20</text><text fill="#595959" font-family="Calibri,Calibri_MSFontService,sans-serif" font-weight="400" font-size="41" transform="matrix(0.349772 0 0 0.349764 884.29 567)">21</text><text fill="#595959" font-family="Calibri,Calibri_MSFontService,sans-serif" font-weight="400" font-size="41" transform="matrix(0.349772 0 0 0.349764 914.053 567)">22</text><text fill="#595959" font-family="Calibri,Calibri_MSFontService,sans-serif" font-weight="400" font-size="41" transform="matrix(0.349772 0 0 0.349764 943.818 567)">23</text><text fill="#595959" font-family="Calibri,Calibri_MSFontService,sans-serif" font-weight="400" font-size="41" transform="matrix(0.349772 0 0 0.349764 973.584 567)">24</text><path d="M484.772 291.703 515.552 291.703" stroke="#ED7D31" stroke-width="3.60694" stroke-linecap="round" stroke-linejoin="round" stroke-miterlimit="10" fill="none" fill-rule="evenodd" transform="matrix(1.00002 0 0 1 -375.296 4.19041)"/><text fill="#595959" font-family="Calibri,Calibri_MSFontService,sans-serif" font-weight="400" font-size="41" transform="matrix(0.349772 0 0 0.349764 143.514 300)">Activation</text><path d="M484.772 318.635 515.552 318.635" stroke="#FFD966" stroke-width="3.60694" stroke-linecap="round" stroke-linejoin="round" stroke-miterlimit="10" fill="none" fill-rule="evenodd" transform="matrix(1.00002 0 0 1 -375.296 4.19041)"/><text fill="#595959" font-family="Calibri,Calibri_MSFontService,sans-serif" font-weight="400" font-size="41" transform="matrix(0.349772 0 0 0.349764 143.514 327)">Hysteresis</text><path d="M484.772 345.566 515.552 345.566" stroke="#4472C4" stroke-width="3.60694" stroke-linecap="round" stroke-linejoin="round" stroke-miterlimit="10" fill="none" fill-rule="evenodd" transform="matrix(1.00002 0 0 1 -375.296 4.19041)"/><text fill="#595959" font-family="Calibri,Calibri_MSFontService,sans-serif" font-weight="400" font-size="41" transform="matrix(0.349772 0 0 0.349764 143.514 354)">Temperature</text><path d="M467.809 60.3342 1388.74 60.3342 1388.74 577.285 467.809 577.285Z" stroke="#D9D9D9" stroke-width="1.20231" stroke-linejoin="round" stroke-miterlimit="10" fill="none" transform="matrix(1.00002 0 0 1 -375.296 4.19041)"/><text font-family="Calibri,Calibri_MSFontService,sans-serif" font-weight="400" font-size="50" transform="matrix(0.349772 0 0 0.349764 642.426 435)">Pump activated</text></g></svg>