<svg width="2636" height="1481" xmlns="http://www.w3.org/2000/svg" xmlns:xlink="http://www.w3.org/1999/xlink" xml:space="preserve" overflow="hidden"><defs><clipPath id="clip0"><rect x="2161" y="171" width="2636" height="1481"/></clipPath></defs><g clip-path="url(#clip0)" transform="translate(-2161 -171)"><rect x="2162" y="172" width="2633" height="1478" fill="#FFFFFF"/><g><path d="M2831.5 1543.5 4744.5 1543.5M2831.5 1378.55 4744.5 1378.55M2831.5 1048.53 4744.5 1048.53M2831.5 882.529 4744.5 882.529M2831.5 717.524 4744.5 717.524M2831.5 552.518 4744.5 552.518M2831.5 387.513 4744.5 387.513M2831.5 222.5 4744.5 222.5" stroke="#D9D9D9" stroke-width="3.4375" stroke-linejoin="round" stroke-miterlimit="10" fill="none"/></g><g><path d="M2871 1213 2951.1 1213 3030.1 1213 3110.1 1213 3190.1 1213 3270.11 1213 3349.11 1213 3429.11 1213 3429.11 619.02 3509.12 685.022 3588.12 718.024 3668.12 751.025 3748.12 751.025 3828.13 718.024 3907.13 685.022 3987.13 751.025 4067.13 718.024 4147.14 619.02 4226.14 553 4226.14 1213 4306.14 1213 4386.14 1213 4466.15 1213 4545.15 1213 4625.15 1213 4705 1213 4705 1213 4625.15 1213 4545.15 1213 4466.15 1213 4386.14 1213 4306.14 1213 4226.14 1213 4226.14 1213 4147.14 1213 4067.13 1213 3987.13 1213 3907.13 1213 3828.13 1213 3748.12 1213 3668.12 1213 3588.12 1213 3509.12 1213 3429.11 1213 3429.11 1213 3349.11 1213 3270.11 1213 3190.1 1213 3110.1 1213 3030.1 1213 2951.1 1213 2871 1213Z" fill="#A9D18E"/></g><g><path d="M2831.5 1213.5 4744.5 1213.5" stroke="#D9D9D9" stroke-width="3.4375" stroke-linejoin="round" stroke-miterlimit="10" fill="none" fill-rule="evenodd"/></g><g><path d="M2871 1379C2897.58 1379 2924.16 1379 2950.74 1379 2977.32 1379 3003.9 1379 3030.48 1379 3057.06 1379 3083.64 1379 3110.22 1379 3136.8 1379 3163.38 1379 3189.96 1379 3216.54 1379 3243.12 1379 3269.7 1379 3296.27 1379 3322.86 1379 3349.43 1379 3376.01 1379 3402.59 1379 3429.17 1379 3455.75 1379 3482.33 1379 3508.91 1379 3535.49 1379 3562.07 1379 3588.65 1379 3615.23 1379 3641.81 1379 3668.39 1379 3694.97 1379 3721.55 1379 3748.13 1379 3774.71 1379 3801.29 1379 3827.87 1379 3854.45 1379 3881.03 1379 3907.61 1379 3934.19 1379 3960.77 1379 3987.35 1379 4013.93 1379 4040.51 1379 4067.09 1379 4093.67 1379 4120.25 1379 4146.83 1379 4173.41 1379 4199.99 1379 4226.56 1379 4253.14 1379 4279.72 1379 4306.3 1379 4332.88 1379 4359.46 1379 4386.04 1379 4412.62 1379 4439.2 1379 4465.78 1379 4492.36 1379 4518.94 1379 4545.52 1379 4572.1 1379 4598.68 1379 4625.26 1379 4651.84 1379 4678.42 1379 4705 1379" stroke="#ED7D31" stroke-width="10.3125" stroke-linecap="round" stroke-linejoin="round" stroke-miterlimit="10" fill="none"/></g><g><path d="M2871 1312C2897.58 1312 2924.16 1312 2950.74 1312 2977.32 1312 3003.9 1312 3030.48 1312 3057.06 1312 3083.64 1312 3110.22 1312 3136.8 1312 3163.38 1312 3189.96 1312 3216.54 1312 3243.12 1312 3269.7 1312 3296.27 1312 3322.86 1312 3349.43 1312 3376.01 1312 3402.59 1312 3429.17 1312 3455.75 1312 3482.33 1312 3508.91 1312 3535.49 1312 3562.07 1312 3588.65 1312 3615.23 1312 3641.81 1312 3668.39 1312 3694.97 1312 3721.55 1312 3748.13 1312 3774.71 1312 3801.29 1312 3827.87 1312 3854.45 1312 3881.03 1312 3907.61 1312 3934.19 1312 3960.77 1312 3987.35 1312 4013.93 1312 4040.51 1312 4067.09 1312 4093.67 1312 4120.25 1312 4146.83 1312 4173.41 1312 4199.99 1312 4226.56 1312 4253.14 1312 4279.72 1312 4306.3 1312 4332.88 1312 4359.46 1312 4386.04 1312 4412.62 1312 4439.2 1312 4465.78 1312 4492.36 1312 4518.94 1312 4545.52 1312 4572.1 1312 4598.68 1312 4625.26 1312 4651.84 1312 4678.42 1312 4705 1312" stroke="#FFD966" stroke-width="10.3125" stroke-linecap="round" stroke-linejoin="round" stroke-miterlimit="10" fill="none"/></g><g><path d="M2871 420 2951.1 420 3030.1 420 3110.1 420 3190.1 420 3270.11 420 3349.11 420 3429.11 619.02 3509.12 685.022 3588.12 718.024 3668.12 751 3748.12 751 3828.13 718.024 3907.13 685.022 3987.13 751 4067.13 718.024 4147.14 619.02 4226.14 553.018 4306.14 454.015 4386.14 420 4466.15 420 4545.15 420 4625.15 420 4705 420" stroke="#4472C4" stroke-width="10.3125" stroke-linecap="round" stroke-linejoin="round" stroke-miterlimit="10" fill="none"/></g><g><path d="M2871 387 2951.1 387 3030.1 387 3110.1 387 3190.1 387 3270.11 387 3349.11 387 3429.11 420.014 3509.12 454.015 3588.12 487.016 3668.12 553.018 3748.12 586 3828.13 586 3907.13 553.018 3987.13 553.018 4067.13 520.017 4147.14 454.015 4226.14 454.015 4306.14 387 4386.14 387 4466.15 387 4545.15 387 4625.15 387 4705 387" stroke="#5B9BD5" stroke-width="10.3125" stroke-linecap="round" stroke-linejoin="round" stroke-miterlimit="10" fill="none"/></g><g><path d="M2871 1246 2951.1 1246 3030.1 1246 3110.1 1246 3190.1 1246 3270.11 1246 3349.11 1246 3429.11 1411.05 3509.12 1445 3588.12 1445 3668.12 1411.05 3748.12 1378.05 3828.13 1345.04 3907.13 1345.04 3987.13 1411.05 4067.13 1411.05 4147.14 1378.05 4226.14 1312.04 4306.14 1279.04 4386.14 1246 4466.15 1246 4545.15 1246 4625.15 1246 4705 1246" stroke="#70AD47" stroke-width="10.3125" stroke-linecap="round" stroke-linejoin="round" stroke-miterlimit="10" fill="none"/></g><g><text fill="#595959" font-family="Calibri,Calibri_MSFontService,sans-serif" font-weight="400" font-size="41" transform="matrix(1 0 0 1 2693.17 1555)">-10,0°</text></g><g><text fill="#595959" font-family="Calibri,Calibri_MSFontService,sans-serif" font-weight="400" font-size="41" transform="matrix(1 0 0 1 2714.07 1390)">-5,0°</text></g><g><text fill="#595959" font-family="Calibri,Calibri_MSFontService,sans-serif" font-weight="400" font-size="41" transform="matrix(1 0 0 1 2726.69 1225)">0,0°</text></g><g><text fill="#595959" font-family="Calibri,Calibri_MSFontService,sans-serif" font-weight="400" font-size="41" transform="matrix(1 0 0 1 2726.69 1060)">5,0°</text></g><g><text fill="#595959" font-family="Calibri,Calibri_MSFontService,sans-serif" font-weight="400" font-size="41" transform="matrix(1 0 0 1 2705.79 895)">10,0°</text></g><g><text fill="#595959" font-family="Calibri,Calibri_MSFontService,sans-serif" font-weight="400" font-size="41" transform="matrix(1 0 0 1 2705.79 729)">15,0°</text></g><g><text fill="#595959" font-family="Calibri,Calibri_MSFontService,sans-serif" font-weight="400" font-size="41" transform="matrix(1 0 0 1 2705.79 564)">20,0°</text></g><g><text fill="#595959" font-family="Calibri,Calibri_MSFontService,sans-serif" font-weight="400" font-size="41" transform="matrix(1 0 0 1 2705.79 399)">25,0°</text></g><g><text fill="#595959" font-family="Calibri,Calibri_MSFontService,sans-serif" font-weight="400" font-size="41" transform="matrix(1 0 0 1 2705.79 234)">30,0°</text></g><g><text fill="#595959" font-family="Calibri,Calibri_MSFontService,sans-serif" font-weight="400" font-size="41" transform="matrix(1 0 0 1 2860.45 1609)">1</text></g><g><text fill="#595959" font-family="Calibri,Calibri_MSFontService,sans-serif" font-weight="400" font-size="41" transform="matrix(1 0 0 1 2940.2 1609)">2</text></g><g><text fill="#595959" font-family="Calibri,Calibri_MSFontService,sans-serif" font-weight="400" font-size="41" transform="matrix(1 0 0 1 3019.94 1609)">3</text></g><g><text fill="#595959" font-family="Calibri,Calibri_MSFontService,sans-serif" font-weight="400" font-size="41" transform="matrix(1 0 0 1 3099.69 1609)">4</text></g><g><text fill="#595959" font-family="Calibri,Calibri_MSFontService,sans-serif" font-weight="400" font-size="41" transform="matrix(1 0 0 1 3179.43 1609)">5</text></g><g><text fill="#595959" font-family="Calibri,Calibri_MSFontService,sans-serif" font-weight="400" font-size="41" transform="matrix(1 0 0 1 3259.17 1609)">6</text></g><g><text fill="#595959" font-family="Calibri,Calibri_MSFontService,sans-serif" font-weight="400" font-size="41" transform="matrix(1 0 0 1 3338.92 1609)">7</text></g><g><text fill="#595959" font-family="Calibri,Calibri_MSFontService,sans-serif" font-weight="400" font-size="41" transform="matrix(1 0 0 1 3418.66 1609)">8</text></g><g><text fill="#595959" font-family="Calibri,Calibri_MSFontService,sans-serif" font-weight="400" font-size="41" transform="matrix(1 0 0 1 3498.41 1609)">9</text></g><g><text fill="#595959" font-family="Calibri,Calibri_MSFontService,sans-serif" font-weight="400" font-size="41" transform="matrix(1 0 0 1 3567.7 1609)">10</text></g><g><text fill="#595959" font-family="Calibri,Calibri_MSFontService,sans-serif" font-weight="400" font-size="41" transform="matrix(1 0 0 1 3647.45 1609)">11</text></g><g><text fill="#595959" font-family="Calibri,Calibri_MSFontService,sans-serif" font-weight="400" font-size="41" transform="matrix(1 0 0 1 3727.19 1609)">12</text></g><g><text fill="#595959" font-family="Calibri,Calibri_MSFontService,sans-serif" font-weight="400" font-size="41" transform="matrix(1 0 0 1 3806.94 1609)">13</text></g><g><text fill="#595959" font-family="Calibri,Calibri_MSFontService,sans-serif" font-weight="400" font-size="41" transform="matrix(1 0 0 1 3886.68 1609)">14</text></g><g><text fill="#595959" font-family="Calibri,Calibri_MSFontService,sans-serif" font-weight="400" font-size="41" transform="matrix(1 0 0 1 3966.42 1609)">15</text></g><g><text fill="#595959" font-family="Calibri,Calibri_MSFontService,sans-serif" font-weight="400" font-size="41" transform="matrix(1 0 0 1 4046.17 1609)">16</text></g><g><text fill="#595959" font-family="Calibri,Calibri_MSFontService,sans-serif" font-weight="400" font-size="41" transform="matrix(1 0 0 1 4125.91 1609)">17</text></g><g><text fill="#595959" font-family="Calibri,Calibri_MSFontService,sans-serif" font-weight="400" font-size="41" transform="matrix(1 0 0 1 4205.66 1609)">18</text></g><g><text fill="#595959" font-family="Calibri,Calibri_MSFontService,sans-serif" font-weight="400" font-size="41" transform="matrix(1 0 0 1 4285.4 1609)">19</text></g><g><text fill="#595959" font-family="Calibri,Calibri_MSFontService,sans-serif" font-weight="400" font-size="41" transform="matrix(1 0 0 1 4365.15 1609)">20</text></g><g><text fill="#595959" font-family="Calibri,Calibri_MSFontService,sans-serif" font-weight="400" font-size="41" transform="matrix(1 0 0 1 4444.89 1609)">21</text></g><g><text fill="#595959" font-family="Calibri,Calibri_MSFontService,sans-serif" font-weight="400" font-size="41" transform="matrix(1 0 0 1 4524.63 1609)">22</text></g><g><text fill="#595959" font-family="Calibri,Calibri_MSFontService,sans-serif" font-weight="400" font-size="41" transform="matrix(1 0 0 1 4604.38 1609)">23</text></g><g><text fill="#595959" font-family="Calibri,Calibri_MSFontService,sans-serif" font-weight="400" font-size="41" transform="matrix(1 0 0 1 4684.12 1609)">24</text></g><g><path d="M2211 756 2299 756" stroke="#ED7D31" stroke-width="10.3125" stroke-linecap="round" stroke-linejoin="round" stroke-miterlimit="10" fill="none" fill-rule="evenodd"/></g><g><text fill="#595959" font-family="Calibri,Calibri_MSFontService,sans-serif" font-weight="400" font-size="41" transform="matrix(1 0 0 1 2308.28 768)">Activation</text></g><g><path d="M2211 834 2299 834" stroke="#FFD966" stroke-width="10.3125" stroke-linecap="round" stroke-linejoin="round" stroke-miterlimit="10" fill="none" fill-rule="evenodd"/></g><g><text fill="#595959" font-family="Calibri,Calibri_MSFontService,sans-serif" font-weight="400" font-size="41" transform="matrix(1 0 0 1 2308.28 845)">Hysteresis</text></g><g><path d="M2211 911 2299 911" stroke="#4472C4" stroke-width="10.3125" stroke-linecap="round" stroke-linejoin="round" stroke-miterlimit="10" fill="none" fill-rule="evenodd"/></g><g><text fill="#595959" font-family="Calibri,Calibri_MSFontService,sans-serif" font-weight="400" font-size="41" transform="matrix(1 0 0 1 2308.28 922)">Temperature flow</text></g><g><path d="M2211 988 2299 988" stroke="#5B9BD5" stroke-width="10.3125" stroke-linecap="round" stroke-linejoin="round" stroke-miterlimit="10" fill="none" fill-rule="evenodd"/></g><g><text fill="#595959" font-family="Calibri,Calibri_MSFontService,sans-serif" font-weight="400" font-size="41" transform="matrix(1 0 0 1 2308.28 1000)">Temperature return</text></g><g><path d="M2211 1066 2299 1066" stroke="#70AD47" stroke-width="10.3125" stroke-linecap="round" stroke-linejoin="round" stroke-miterlimit="10" fill="none" fill-rule="evenodd"/></g><g><text fill="#595959" font-family="Calibri,Calibri_MSFontService,sans-serif" font-weight="400" font-size="41" transform="matrix(1 0 0 1 2308.28 1077)">∆T</text></g><rect x="2162.5" y="172.5" width="2633" height="1478" stroke="#D9D9D9" stroke-width="3.4375" stroke-linejoin="round" stroke-miterlimit="10" fill="none"/><text font-family="Calibri,Calibri_MSFontService,sans-serif" font-weight="400" font-size="50" transform="matrix(1 0 0 1 3667.64 958)">Pump activated</text></g></svg>