<svg width="923" height="518" xmlns="http://www.w3.org/2000/svg" xmlns:xlink="http://www.w3.org/1999/xlink" xml:space="preserve" overflow="hidden"><defs><clipPath id="clip0"><rect x="99" y="75" width="923" height="518"/></clipPath><clipPath id="clip1"><rect x="288" y="92" width="717" height="465"/></clipPath></defs><g clip-path="url(#clip0)" transform="translate(-99 -75)"><path d="M467.634 60.1594 1388.56 60.1594 1388.56 577.11 467.634 577.11Z" fill="#FFFFFF" transform="matrix(1.00111 0 0 1 -368.803 15.1904)"/><path d="M656.681 473.769 1370.9 473.769M656.681 408.013 1370.9 408.013M656.681 341.905 1370.9 341.905M656.681 275.798 1370.9 275.798M656.681 209.69 1370.9 209.69M656.681 143.933 1370.9 143.933M656.681 77.8224 1370.9 77.8224" stroke="#D9D9D9" stroke-width="1.20231" stroke-linejoin="round" stroke-miterlimit="10" fill="none" transform="matrix(1.00111 0 0 1 -368.803 15.1904)"/><g clip-path="url(#clip1)"><path d="M671.546 605.791 701.301 605.791 731.031 605.791 760.76 605.791 790.49 605.791 820.574 605.791 850.303 605.791 880.033 605.791 880.033 209.865 909.767 434.42 939.497 447.362 969.227 447.362 998.957 407.838 1028.69 394.547 1058.42 275.973 1088.15 209.865 1117.88 196.573 1147.96 315.497 1177.69 355.021 1207.42 341.73 1237.16 275.973 1266.89 183.276 1266.89 605.791 1296.62 605.791 1326.35 605.791 1356.03 605.791 1356.03 540.053 1326.35 540.053 1296.62 540.053 1266.89 540.053 1266.89 540.053 1237.16 540.053 1207.42 540.053 1177.69 540.053 1147.96 540.053 1117.88 540.053 1088.15 540.053 1058.42 540.053 1028.69 540.053 998.957 540.053 969.227 540.053 939.497 540.053 909.767 540.053 880.033 540.053 880.033 540.053 850.303 540.053 820.574 540.053 790.49 540.053 760.76 540.053 731.031 540.053 701.301 540.053 671.546 540.053Z" fill="#A9D18E" transform="matrix(1.00111 0 0 1 -368.803 15.1904)"/></g><path d="M656.681 539.86 1370.9 539.86" stroke="#D9D9D9" stroke-width="1.20231" stroke-linejoin="round" stroke-miterlimit="10" fill="none" fill-rule="evenodd" transform="matrix(1.00111 0 0 1 -368.803 15.1904)"/><path d="M671.546 130.462 701.301 130.462 731.031 130.462 760.76 130.462 790.49 130.462 820.574 130.462 850.303 130.462 880.033 209.865 909.767 434.42 939.497 447.348 969.227 447.348 998.957 407.838 1028.69 394.547 1058.42 275.973 1088.15 209.865 1117.88 196.573 1147.96 315.497 1177.69 355.021 1207.42 341.73 1237.16 275.973 1266.89 183.282 1296.62 130.462 1326.35 130.462 1356.03 130.462" stroke="#4472C4" stroke-width="3.60694" stroke-linecap="round" stroke-linejoin="round" stroke-miterlimit="10" fill="none" transform="matrix(1.00111 0 0 1 -368.803 15.1904)"/><path d="M671.546 209.858C681.466 209.858 691.385 209.858 701.308 209.858 711.227 209.858 721.146 209.858 731.065 209.858 740.988 209.858 750.908 209.858 760.827 209.858 770.746 209.858 780.669 209.858 790.588 209.858 800.508 209.858 810.427 209.858 820.346 209.858 830.269 209.858 840.188 209.858 850.108 209.858 860.027 209.858 869.95 209.858 879.869 209.858 889.788 209.858 899.708 209.858 909.63 209.858 919.55 209.858 929.469 209.858 939.388 209.858 949.311 209.858 959.23 209.858 969.15 209.858 979.069 209.858 988.988 209.858 998.911 209.858 1008.83 209.858 1018.75 209.858 1028.67 209.858 1038.59 209.858 1048.51 209.858 1058.43 209.858 1068.35 209.858 1078.27 209.858 1088.19 209.858 1098.11 209.858 1108.03 209.858 1117.95 209.858 1127.87 209.858 1137.79 209.858 1147.71 209.858 1157.63 209.858 1167.55 209.858 1177.47 209.858 1187.39 209.858 1197.31 209.858 1207.23 209.858 1217.15 209.858 1227.07 209.858 1236.99 209.858 1246.91 209.858 1256.83 209.858 1266.75 209.858 1276.67 209.858 1286.59 209.858 1296.51 209.858 1306.43 209.858 1316.35 209.858 1326.27 209.858 1336.2 209.858 1346.11 209.858 1356.03 209.858" stroke="#ED7D31" stroke-width="3.60694" stroke-linecap="round" stroke-linejoin="round" stroke-miterlimit="10" fill="none" transform="matrix(1.00111 0 0 1 -368.803 15.1904)"/><path d="M671.546 183.276C681.466 183.276 691.385 183.276 701.308 183.276 711.227 183.276 721.146 183.276 731.065 183.276 740.988 183.276 750.908 183.276 760.827 183.276 770.746 183.276 780.669 183.276 790.588 183.276 800.508 183.276 810.427 183.276 820.346 183.276 830.269 183.276 840.188 183.276 850.108 183.276 860.027 183.276 869.95 183.276 879.869 183.276 889.788 183.276 899.708 183.276 909.63 183.276 919.55 183.276 929.469 183.276 939.388 183.276 949.311 183.276 959.23 183.276 969.15 183.276 979.069 183.276 988.988 183.276 998.911 183.276 1008.83 183.276 1018.75 183.276 1028.67 183.276 1038.59 183.276 1048.51 183.276 1058.43 183.276 1068.35 183.276 1078.27 183.276 1088.19 183.276 1098.11 183.276 1108.03 183.276 1117.95 183.276 1127.87 183.276 1137.79 183.276 1147.71 183.276 1157.63 183.276 1167.55 183.276 1177.47 183.276 1187.39 183.276 1197.31 183.276 1207.23 183.276 1217.15 183.276 1227.07 183.276 1236.99 183.276 1246.91 183.276 1256.83 183.276 1266.75 183.276 1276.67 183.276 1286.59 183.276 1296.51 183.276 1306.43 183.276 1316.35 183.276 1326.27 183.276 1336.2 183.276 1346.11 183.276 1356.03 183.276" stroke="#FFD966" stroke-width="3.60694" stroke-linecap="round" stroke-linejoin="round" stroke-miterlimit="10" fill="none" transform="matrix(1.00111 0 0 1 -368.803 15.1904)"/><text fill="#595959" font-family="Calibri,Calibri_MSFontService,sans-serif" font-weight="400" font-size="41" transform="matrix(0.350152 0 0 0.349764 252.104 559)">5</text><text fill="#595959" font-family="Calibri,Calibri_MSFontService,sans-serif" font-weight="400" font-size="41" transform="matrix(0.350152 0 0 0.349764 259.457 559)">,</text><text fill="#595959" font-family="Calibri,Calibri_MSFontService,sans-serif" font-weight="400" font-size="41" transform="matrix(0.350152 0 0 0.349764 262.959 559)">0</text><text fill="#595959" font-family="Calibri,Calibri_MSFontService,sans-serif" font-weight="400" font-size="41" transform="matrix(0.350152 0 0 0.349764 270.312 559)">°</text><text fill="#595959" font-family="Calibri,Calibri_MSFontService,sans-serif" font-weight="400" font-size="41" transform="matrix(0.350152 0 0 0.349764 244.786 493)">10</text><text fill="#595959" font-family="Calibri,Calibri_MSFontService,sans-serif" font-weight="400" font-size="41" transform="matrix(0.350152 0 0 0.349764 259.492 493)">,</text><text fill="#595959" font-family="Calibri,Calibri_MSFontService,sans-serif" font-weight="400" font-size="41" transform="matrix(0.350152 0 0 0.349764 262.994 493)">0</text><text fill="#595959" font-family="Calibri,Calibri_MSFontService,sans-serif" font-weight="400" font-size="41" transform="matrix(0.350152 0 0 0.349764 270.347 493)">°</text><text fill="#595959" font-family="Calibri,Calibri_MSFontService,sans-serif" font-weight="400" font-size="41" transform="matrix(0.350152 0 0 0.349764 244.786 427)">15</text><text fill="#595959" font-family="Calibri,Calibri_MSFontService,sans-serif" font-weight="400" font-size="41" transform="matrix(0.350152 0 0 0.349764 259.492 427)">,</text><text fill="#595959" font-family="Calibri,Calibri_MSFontService,sans-serif" font-weight="400" font-size="41" transform="matrix(0.350152 0 0 0.349764 262.994 427)">0</text><text fill="#595959" font-family="Calibri,Calibri_MSFontService,sans-serif" font-weight="400" font-size="41" transform="matrix(0.350152 0 0 0.349764 270.347 427)">°</text><text fill="#595959" font-family="Calibri,Calibri_MSFontService,sans-serif" font-weight="400" font-size="41" transform="matrix(0.350152 0 0 0.349764 244.786 361)">20</text><text fill="#595959" font-family="Calibri,Calibri_MSFontService,sans-serif" font-weight="400" font-size="41" transform="matrix(0.350152 0 0 0.349764 259.492 361)">,</text><text fill="#595959" font-family="Calibri,Calibri_MSFontService,sans-serif" font-weight="400" font-size="41" transform="matrix(0.350152 0 0 0.349764 262.994 361)">0</text><text fill="#595959" font-family="Calibri,Calibri_MSFontService,sans-serif" font-weight="400" font-size="41" transform="matrix(0.350152 0 0 0.349764 270.347 361)">°</text><text fill="#595959" font-family="Calibri,Calibri_MSFontService,sans-serif" font-weight="400" font-size="41" transform="matrix(0.350152 0 0 0.349764 244.786 295)">25</text><text fill="#595959" font-family="Calibri,Calibri_MSFontService,sans-serif" font-weight="400" font-size="41" transform="matrix(0.350152 0 0 0.349764 259.492 295)">,</text><text fill="#595959" font-family="Calibri,Calibri_MSFontService,sans-serif" font-weight="400" font-size="41" transform="matrix(0.350152 0 0 0.349764 262.994 295)">0</text><text fill="#595959" font-family="Calibri,Calibri_MSFontService,sans-serif" font-weight="400" font-size="41" transform="matrix(0.350152 0 0 0.349764 270.347 295)">°</text><text fill="#595959" font-family="Calibri,Calibri_MSFontService,sans-serif" font-weight="400" font-size="41" transform="matrix(0.350152 0 0 0.349764 244.786 229)">30</text><text fill="#595959" font-family="Calibri,Calibri_MSFontService,sans-serif" font-weight="400" font-size="41" transform="matrix(0.350152 0 0 0.349764 259.492 229)">,</text><text fill="#595959" font-family="Calibri,Calibri_MSFontService,sans-serif" font-weight="400" font-size="41" transform="matrix(0.350152 0 0 0.349764 262.994 229)">0</text><text fill="#595959" font-family="Calibri,Calibri_MSFontService,sans-serif" font-weight="400" font-size="41" transform="matrix(0.350152 0 0 0.349764 270.347 229)">°</text><text fill="#595959" font-family="Calibri,Calibri_MSFontService,sans-serif" font-weight="400" font-size="41" transform="matrix(0.350152 0 0 0.349764 244.786 163)">35</text><text fill="#595959" font-family="Calibri,Calibri_MSFontService,sans-serif" font-weight="400" font-size="41" transform="matrix(0.350152 0 0 0.349764 259.492 163)">,</text><text fill="#595959" font-family="Calibri,Calibri_MSFontService,sans-serif" font-weight="400" font-size="41" transform="matrix(0.350152 0 0 0.349764 262.994 163)">0</text><text fill="#595959" font-family="Calibri,Calibri_MSFontService,sans-serif" font-weight="400" font-size="41" transform="matrix(0.350152 0 0 0.349764 270.347 163)">°</text><text fill="#595959" font-family="Calibri,Calibri_MSFontService,sans-serif" font-weight="400" font-size="41" transform="matrix(0.350152 0 0 0.349764 244.786 97)">40</text><text fill="#595959" font-family="Calibri,Calibri_MSFontService,sans-serif" font-weight="400" font-size="41" transform="matrix(0.350152 0 0 0.349764 259.492 97)">,</text><text fill="#595959" font-family="Calibri,Calibri_MSFontService,sans-serif" font-weight="400" font-size="41" transform="matrix(0.350152 0 0 0.349764 262.994 97)">0</text><text fill="#595959" font-family="Calibri,Calibri_MSFontService,sans-serif" font-weight="400" font-size="41" transform="matrix(0.350152 0 0 0.349764 270.347 97)">°</text><text fill="#595959" font-family="Calibri,Calibri_MSFontService,sans-serif" font-weight="400" font-size="41" transform="matrix(0.350152 0 0 0.349764 299.875 578)">1</text><text fill="#595959" font-family="Calibri,Calibri_MSFontService,sans-serif" font-weight="400" font-size="41" transform="matrix(0.350152 0 0 0.349764 329.673 578)">2</text><text fill="#595959" font-family="Calibri,Calibri_MSFontService,sans-serif" font-weight="400" font-size="41" transform="matrix(0.350152 0 0 0.349764 359.467 578)">3</text><text fill="#595959" font-family="Calibri,Calibri_MSFontService,sans-serif" font-weight="400" font-size="41" transform="matrix(0.350152 0 0 0.349764 389.265 578)">4</text><text fill="#595959" font-family="Calibri,Calibri_MSFontService,sans-serif" font-weight="400" font-size="41" transform="matrix(0.350152 0 0 0.349764 419.063 578)">5</text><text fill="#595959" font-family="Calibri,Calibri_MSFontService,sans-serif" font-weight="400" font-size="41" transform="matrix(0.350152 0 0 0.349764 448.858 578)">6</text><text fill="#595959" font-family="Calibri,Calibri_MSFontService,sans-serif" font-weight="400" font-size="41" transform="matrix(0.350152 0 0 0.349764 478.656 578)">7</text><text fill="#595959" font-family="Calibri,Calibri_MSFontService,sans-serif" font-weight="400" font-size="41" transform="matrix(0.350152 0 0 0.349764 508.453 578)">8</text><text fill="#595959" font-family="Calibri,Calibri_MSFontService,sans-serif" font-weight="400" font-size="41" transform="matrix(0.350152 0 0 0.349764 538.248 578)">9</text><text fill="#595959" font-family="Calibri,Calibri_MSFontService,sans-serif" font-weight="400" font-size="41" transform="matrix(0.350152 0 0 0.349764 564.387 578)">10</text><text fill="#595959" font-family="Calibri,Calibri_MSFontService,sans-serif" font-weight="400" font-size="41" transform="matrix(0.350152 0 0 0.349764 594.181 578)">11</text><text fill="#595959" font-family="Calibri,Calibri_MSFontService,sans-serif" font-weight="400" font-size="41" transform="matrix(0.350152 0 0 0.349764 623.979 578)">12</text><text fill="#595959" font-family="Calibri,Calibri_MSFontService,sans-serif" font-weight="400" font-size="41" transform="matrix(0.350152 0 0 0.349764 653.777 578)">13</text><text fill="#595959" font-family="Calibri,Calibri_MSFontService,sans-serif" font-weight="400" font-size="41" transform="matrix(0.350152 0 0 0.349764 683.571 578)">14</text><text fill="#595959" font-family="Calibri,Calibri_MSFontService,sans-serif" font-weight="400" font-size="41" transform="matrix(0.350152 0 0 0.349764 713.369 578)">15</text><text fill="#595959" font-family="Calibri,Calibri_MSFontService,sans-serif" font-weight="400" font-size="41" transform="matrix(0.350152 0 0 0.349764 743.167 578)">16</text><text fill="#595959" font-family="Calibri,Calibri_MSFontService,sans-serif" font-weight="400" font-size="41" transform="matrix(0.350152 0 0 0.349764 772.962 578)">17</text><text fill="#595959" font-family="Calibri,Calibri_MSFontService,sans-serif" font-weight="400" font-size="41" transform="matrix(0.350152 0 0 0.349764 802.759 578)">18</text><text fill="#595959" font-family="Calibri,Calibri_MSFontService,sans-serif" font-weight="400" font-size="41" transform="matrix(0.350152 0 0 0.349764 832.557 578)">19</text><text fill="#595959" font-family="Calibri,Calibri_MSFontService,sans-serif" font-weight="400" font-size="41" transform="matrix(0.350152 0 0 0.349764 862.352 578)">20</text><text fill="#595959" font-family="Calibri,Calibri_MSFontService,sans-serif" font-weight="400" font-size="41" transform="matrix(0.350152 0 0 0.349764 892.15 578)">21</text><text fill="#595959" font-family="Calibri,Calibri_MSFontService,sans-serif" font-weight="400" font-size="41" transform="matrix(0.350152 0 0 0.349764 921.944 578)">22</text><text fill="#595959" font-family="Calibri,Calibri_MSFontService,sans-serif" font-weight="400" font-size="41" transform="matrix(0.350152 0 0 0.349764 951.742 578)">23</text><text fill="#595959" font-family="Calibri,Calibri_MSFontService,sans-serif" font-weight="400" font-size="41" transform="matrix(0.350152 0 0 0.349764 981.54 578)">24</text><path d="M484.772 291.703 515.552 291.703" stroke="#4472C4" stroke-width="3.60694" stroke-linecap="round" stroke-linejoin="round" stroke-miterlimit="10" fill="none" fill-rule="evenodd" transform="matrix(1.00111 0 0 1 -368.803 15.1904)"/><text fill="#595959" font-family="Calibri,Calibri_MSFontService,sans-serif" font-weight="400" font-size="41" transform="matrix(0.350152 0 0 0.349764 150.57 311)">Temperature</text><path d="M484.772 318.635 515.552 318.635" stroke="#ED7D31" stroke-width="3.60694" stroke-linecap="round" stroke-linejoin="round" stroke-miterlimit="10" fill="none" fill-rule="evenodd" transform="matrix(1.00111 0 0 1 -368.803 15.1904)"/><text fill="#595959" font-family="Calibri,Calibri_MSFontService,sans-serif" font-weight="400" font-size="41" transform="matrix(0.350152 0 0 0.349764 150.57 338)">Activation</text><path d="M484.772 345.566 515.552 345.566" stroke="#FFD966" stroke-width="3.60694" stroke-linecap="round" stroke-linejoin="round" stroke-miterlimit="10" fill="none" fill-rule="evenodd" transform="matrix(1.00111 0 0 1 -368.803 15.1904)"/><text fill="#595959" font-family="Calibri,Calibri_MSFontService,sans-serif" font-weight="400" font-size="41" transform="matrix(0.350152 0 0 0.349764 150.57 365)">Hysteresis</text><path d="M467.809 60.3342 1388.74 60.3342 1388.74 577.285 467.809 577.285Z" stroke="#D9D9D9" stroke-width="1.20231" stroke-linejoin="round" stroke-miterlimit="10" fill="none" transform="matrix(1.00111 0 0 1 -368.803 15.1904)"/><text font-family="Calibri,Calibri_MSFontService,sans-serif" font-weight="400" font-size="50" transform="matrix(0.350152 0 0 0.349764 650.023 445)">Pump activated</text></g></svg>