<svg width="922" height="518" xmlns="http://www.w3.org/2000/svg" xmlns:xlink="http://www.w3.org/1999/xlink" xml:space="preserve" overflow="hidden"><g transform="translate(-134 -107)"><path d="M756.189 60.1594 1677.12 60.1594 1677.12 577.11 756.189 577.11Z" fill="#FFFFFF" transform="matrix(1.00002 0 0 1 -621.858 47.1904)"/><path d="M990.356 539.86 1659.45 539.86M990.356 482.167 1659.45 482.167M990.356 366.738 1659.45 366.738M990.356 308.677 1659.45 308.677M990.356 250.964 1659.45 250.964M990.356 193.251 1659.45 193.251M990.356 135.538 1659.45 135.538M990.356 77.8224 1659.45 77.8224" stroke="#D9D9D9" stroke-width="1.20231" stroke-linejoin="round" stroke-miterlimit="10" fill="none" transform="matrix(1.00002 0 0 1 -621.858 47.1904)"/><path d="M1004.17 424.263 1032.19 424.263 1059.82 424.263 1087.8 424.263 1115.78 424.263 1143.77 424.263 1171.4 424.263 1199.38 424.263 1199.38 216.511 1227.36 239.596 1254.99 251.139 1282.98 262.681 1310.96 262.681 1338.94 251.139 1366.57 239.596 1394.55 262.681 1422.53 251.139 1450.52 216.511 1478.15 193.419 1478.15 424.263 1506.13 424.263 1534.11 424.263 1562.1 424.263 1589.73 424.263 1617.71 424.263 1645.64 424.263 1645.64 424.263 1617.71 424.263 1589.73 424.263 1562.1 424.263 1534.11 424.263 1506.13 424.263 1478.15 424.263 1478.15 424.263 1450.52 424.263 1422.53 424.263 1394.55 424.263 1366.57 424.263 1338.94 424.263 1310.96 424.263 1282.98 424.263 1254.99 424.263 1227.36 424.263 1199.38 424.263 1199.38 424.263 1171.4 424.263 1143.77 424.263 1115.78 424.263 1087.8 424.263 1059.82 424.263 1032.19 424.263 1004.17 424.263Z" fill="#A9D18E" transform="matrix(1.00002 0 0 1 -621.858 47.1904)"/><path d="M990.356 424.438 1659.45 424.438" stroke="#D9D9D9" stroke-width="1.20231" stroke-linejoin="round" stroke-miterlimit="10" fill="none" fill-rule="evenodd" transform="matrix(1.00002 0 0 1 -621.858 47.1904)"/><path d="M1004.17 482.324C1013.47 482.324 1022.76 482.324 1032.06 482.324 1041.36 482.324 1050.66 482.324 1059.95 482.324 1069.25 482.324 1078.55 482.324 1087.84 482.324 1097.14 482.324 1106.44 482.324 1115.73 482.324 1125.03 482.324 1134.33 482.324 1143.62 482.324 1152.92 482.324 1162.22 482.324 1171.51 482.324 1180.81 482.324 1190.1 482.324 1199.4 482.324 1208.7 482.324 1217.99 482.324 1227.29 482.324 1236.59 482.324 1245.88 482.324 1255.18 482.324 1264.48 482.324 1273.77 482.324 1283.07 482.324 1292.37 482.324 1301.66 482.324 1310.96 482.324 1320.26 482.324 1329.55 482.324 1338.85 482.324 1348.15 482.324 1357.44 482.324 1366.74 482.324 1376.04 482.324 1385.33 482.324 1394.63 482.324 1403.93 482.324 1413.22 482.324 1422.52 482.324 1431.82 482.324 1441.11 482.324 1450.41 482.324 1459.71 482.324 1469 482.324 1478.3 482.324 1487.59 482.324 1496.89 482.324 1506.19 482.324 1515.48 482.324 1524.78 482.324 1534.08 482.324 1543.37 482.324 1552.67 482.324 1561.97 482.324 1571.26 482.324 1580.56 482.324 1589.86 482.324 1599.15 482.324 1608.45 482.324 1617.75 482.324 1627.04 482.324 1636.34 482.324 1645.64 482.324" stroke="#ED7D31" stroke-width="3.60694" stroke-linecap="round" stroke-linejoin="round" stroke-miterlimit="10" fill="none" transform="matrix(1.00002 0 0 1 -621.858 47.1904)"/><path d="M1004.17 458.89C1013.47 458.89 1022.76 458.89 1032.06 458.89 1041.36 458.89 1050.66 458.89 1059.95 458.89 1069.25 458.89 1078.55 458.89 1087.84 458.89 1097.14 458.89 1106.44 458.89 1115.73 458.89 1125.03 458.89 1134.33 458.89 1143.62 458.89 1152.92 458.89 1162.22 458.89 1171.51 458.89 1180.81 458.89 1190.1 458.89 1199.4 458.89 1208.7 458.89 1217.99 458.89 1227.29 458.89 1236.59 458.89 1245.88 458.89 1255.18 458.89 1264.48 458.89 1273.77 458.89 1283.07 458.89 1292.37 458.89 1301.66 458.89 1310.96 458.89 1320.26 458.89 1329.55 458.89 1338.85 458.89 1348.15 458.89 1357.44 458.89 1366.74 458.89 1376.04 458.89 1385.33 458.89 1394.63 458.89 1403.93 458.89 1413.22 458.89 1422.52 458.89 1431.82 458.89 1441.11 458.89 1450.41 458.89 1459.71 458.89 1469 458.89 1478.3 458.89 1487.59 458.89 1496.89 458.89 1506.19 458.89 1515.48 458.89 1524.78 458.89 1534.08 458.89 1543.37 458.89 1552.67 458.89 1561.97 458.89 1571.26 458.89 1580.56 458.89 1589.86 458.89 1599.15 458.89 1608.45 458.89 1617.75 458.89 1627.04 458.89 1636.34 458.89 1645.64 458.89" stroke="#FFD966" stroke-width="3.60694" stroke-linecap="round" stroke-linejoin="round" stroke-miterlimit="10" fill="none" transform="matrix(1.00002 0 0 1 -621.858 47.1904)"/><path d="M1004.17 146.901 1032.19 146.901 1059.82 146.901 1087.8 146.901 1115.78 146.901 1143.77 146.901 1171.4 146.901 1199.38 216.511 1227.36 239.596 1254.99 251.139 1282.98 262.673 1310.96 262.673 1338.94 251.139 1366.57 239.596 1394.55 262.673 1422.53 251.139 1450.52 216.511 1478.15 193.426 1506.13 158.798 1534.11 146.901 1562.1 146.901 1589.73 146.901 1617.71 146.901 1645.64 146.901" stroke="#4472C4" stroke-width="3.60694" stroke-linecap="round" stroke-linejoin="round" stroke-miterlimit="10" fill="none" transform="matrix(1.00002 0 0 1 -621.858 47.1904)"/><path d="M1004.17 135.359 1032.19 135.359 1059.82 135.359 1087.8 135.359 1115.78 135.359 1143.77 135.359 1171.4 135.359 1199.38 146.906 1227.36 158.798 1254.99 170.34 1282.98 193.426 1310.96 204.962 1338.94 204.962 1366.57 193.426 1394.55 193.426 1422.53 181.883 1450.52 158.798 1478.15 158.798 1506.13 135.359 1534.11 135.359 1562.1 135.359 1589.73 135.359 1617.71 135.359 1645.64 135.359" stroke="#5B9BD5" stroke-width="3.60694" stroke-linecap="round" stroke-linejoin="round" stroke-miterlimit="10" fill="none" transform="matrix(1.00002 0 0 1 -621.858 47.1904)"/><path d="M1004.17 435.806 1032.19 435.806 1059.82 435.806 1087.8 435.806 1115.78 435.806 1143.77 435.806 1171.4 435.806 1199.38 493.534 1227.36 505.408 1254.99 505.408 1282.98 493.534 1310.96 481.992 1338.94 470.446 1366.57 470.446 1394.55 493.534 1422.53 493.534 1450.52 481.992 1478.15 458.904 1506.13 447.362 1534.11 435.806 1562.1 435.806 1589.73 435.806 1617.71 435.806 1645.64 435.806" stroke="#70AD47" stroke-width="3.60694" stroke-linecap="round" stroke-linejoin="round" stroke-miterlimit="10" fill="none" transform="matrix(1.00002 0 0 1 -621.858 47.1904)"/><text fill="#595959" font-family="Calibri,Calibri_MSFontService,sans-serif" font-weight="400" font-size="41" transform="matrix(0.349772 0 0 0.349764 320.138 591)">-</text><text fill="#595959" font-family="Calibri,Calibri_MSFontService,sans-serif" font-weight="400" font-size="41" transform="matrix(0.349772 0 0 0.349764 324.685 591)">10</text><text fill="#595959" font-family="Calibri,Calibri_MSFontService,sans-serif" font-weight="400" font-size="41" transform="matrix(0.349772 0 0 0.349764 339.376 591)">,</text><text fill="#595959" font-family="Calibri,Calibri_MSFontService,sans-serif" font-weight="400" font-size="41" transform="matrix(0.349772 0 0 0.349764 342.874 591)">0</text><text fill="#595959" font-family="Calibri,Calibri_MSFontService,sans-serif" font-weight="400" font-size="41" transform="matrix(0.349772 0 0 0.349764 350.219 591)">°</text><text fill="#595959" font-family="Calibri,Calibri_MSFontService,sans-serif" font-weight="400" font-size="41" transform="matrix(0.349772 0 0 0.349764 327.449 533)">-</text><text fill="#595959" font-family="Calibri,Calibri_MSFontService,sans-serif" font-weight="400" font-size="41" transform="matrix(0.349772 0 0 0.349764 331.996 533)">5</text><text fill="#595959" font-family="Calibri,Calibri_MSFontService,sans-serif" font-weight="400" font-size="41" transform="matrix(0.349772 0 0 0.349764 339.341 533)">,</text><text fill="#595959" font-family="Calibri,Calibri_MSFontService,sans-serif" font-weight="400" font-size="41" transform="matrix(0.349772 0 0 0.349764 342.839 533)">0</text><text fill="#595959" font-family="Calibri,Calibri_MSFontService,sans-serif" font-weight="400" font-size="41" transform="matrix(0.349772 0 0 0.349764 350.184 533)">°</text><text fill="#595959" font-family="Calibri,Calibri_MSFontService,sans-serif" font-weight="400" font-size="41" transform="matrix(0.349772 0 0 0.349764 331.863 476)">0</text><text fill="#595959" font-family="Calibri,Calibri_MSFontService,sans-serif" font-weight="400" font-size="41" transform="matrix(0.349772 0 0 0.349764 339.208 476)">,</text><text fill="#595959" font-family="Calibri,Calibri_MSFontService,sans-serif" font-weight="400" font-size="41" transform="matrix(0.349772 0 0 0.349764 342.706 476)">0</text><text fill="#595959" font-family="Calibri,Calibri_MSFontService,sans-serif" font-weight="400" font-size="41" transform="matrix(0.349772 0 0 0.349764 350.051 476)">°</text><text fill="#595959" font-family="Calibri,Calibri_MSFontService,sans-serif" font-weight="400" font-size="41" transform="matrix(0.349772 0 0 0.349764 331.863 418)">5</text><text fill="#595959" font-family="Calibri,Calibri_MSFontService,sans-serif" font-weight="400" font-size="41" transform="matrix(0.349772 0 0 0.349764 339.208 418)">,</text><text fill="#595959" font-family="Calibri,Calibri_MSFontService,sans-serif" font-weight="400" font-size="41" transform="matrix(0.349772 0 0 0.349764 342.706 418)">0</text><text fill="#595959" font-family="Calibri,Calibri_MSFontService,sans-serif" font-weight="400" font-size="41" transform="matrix(0.349772 0 0 0.349764 350.051 418)">°</text><text fill="#595959" font-family="Calibri,Calibri_MSFontService,sans-serif" font-weight="400" font-size="41" transform="matrix(0.349772 0 0 0.349764 324.552 360)">10</text><text fill="#595959" font-family="Calibri,Calibri_MSFontService,sans-serif" font-weight="400" font-size="41" transform="matrix(0.349772 0 0 0.349764 339.243 360)">,</text><text fill="#595959" font-family="Calibri,Calibri_MSFontService,sans-serif" font-weight="400" font-size="41" transform="matrix(0.349772 0 0 0.349764 342.741 360)">0</text><text fill="#595959" font-family="Calibri,Calibri_MSFontService,sans-serif" font-weight="400" font-size="41" transform="matrix(0.349772 0 0 0.349764 350.086 360)">°</text><text fill="#595959" font-family="Calibri,Calibri_MSFontService,sans-serif" font-weight="400" font-size="41" transform="matrix(0.349772 0 0 0.349764 324.552 302)">15</text><text fill="#595959" font-family="Calibri,Calibri_MSFontService,sans-serif" font-weight="400" font-size="41" transform="matrix(0.349772 0 0 0.349764 339.243 302)">,</text><text fill="#595959" font-family="Calibri,Calibri_MSFontService,sans-serif" font-weight="400" font-size="41" transform="matrix(0.349772 0 0 0.349764 342.741 302)">0</text><text fill="#595959" font-family="Calibri,Calibri_MSFontService,sans-serif" font-weight="400" font-size="41" transform="matrix(0.349772 0 0 0.349764 350.086 302)">°</text><text fill="#595959" font-family="Calibri,Calibri_MSFontService,sans-serif" font-weight="400" font-size="41" transform="matrix(0.349772 0 0 0.349764 324.552 244)">20</text><text fill="#595959" font-family="Calibri,Calibri_MSFontService,sans-serif" font-weight="400" font-size="41" transform="matrix(0.349772 0 0 0.349764 339.243 244)">,</text><text fill="#595959" font-family="Calibri,Calibri_MSFontService,sans-serif" font-weight="400" font-size="41" transform="matrix(0.349772 0 0 0.349764 342.741 244)">0</text><text fill="#595959" font-family="Calibri,Calibri_MSFontService,sans-serif" font-weight="400" font-size="41" transform="matrix(0.349772 0 0 0.349764 350.086 244)">°</text><text fill="#595959" font-family="Calibri,Calibri_MSFontService,sans-serif" font-weight="400" font-size="41" transform="matrix(0.349772 0 0 0.349764 324.552 187)">25</text><text fill="#595959" font-family="Calibri,Calibri_MSFontService,sans-serif" font-weight="400" font-size="41" transform="matrix(0.349772 0 0 0.349764 339.243 187)">,</text><text fill="#595959" font-family="Calibri,Calibri_MSFontService,sans-serif" font-weight="400" font-size="41" transform="matrix(0.349772 0 0 0.349764 342.741 187)">0</text><text fill="#595959" font-family="Calibri,Calibri_MSFontService,sans-serif" font-weight="400" font-size="41" transform="matrix(0.349772 0 0 0.349764 350.086 187)">°</text><text fill="#595959" font-family="Calibri,Calibri_MSFontService,sans-serif" font-weight="400" font-size="41" transform="matrix(0.349772 0 0 0.349764 324.552 129)">30</text><text fill="#595959" font-family="Calibri,Calibri_MSFontService,sans-serif" font-weight="400" font-size="41" transform="matrix(0.349772 0 0 0.349764 339.243 129)">,</text><text fill="#595959" font-family="Calibri,Calibri_MSFontService,sans-serif" font-weight="400" font-size="41" transform="matrix(0.349772 0 0 0.349764 342.741 129)">0</text><text fill="#595959" font-family="Calibri,Calibri_MSFontService,sans-serif" font-weight="400" font-size="41" transform="matrix(0.349772 0 0 0.349764 350.086 129)">°</text><text fill="#595959" font-family="Calibri,Calibri_MSFontService,sans-serif" font-weight="400" font-size="41" transform="matrix(0.349772 0 0 0.349764 378.648 610)">1</text><text fill="#595959" font-family="Calibri,Calibri_MSFontService,sans-serif" font-weight="400" font-size="41" transform="matrix(0.349772 0 0 0.349764 406.543 610)">2</text><text fill="#595959" font-family="Calibri,Calibri_MSFontService,sans-serif" font-weight="400" font-size="41" transform="matrix(0.349772 0 0 0.349764 434.434 610)">3</text><text fill="#595959" font-family="Calibri,Calibri_MSFontService,sans-serif" font-weight="400" font-size="41" transform="matrix(0.349772 0 0 0.349764 462.328 610)">4</text><text fill="#595959" font-family="Calibri,Calibri_MSFontService,sans-serif" font-weight="400" font-size="41" transform="matrix(0.349772 0 0 0.349764 490.219 610)">5</text><text fill="#595959" font-family="Calibri,Calibri_MSFontService,sans-serif" font-weight="400" font-size="41" transform="matrix(0.349772 0 0 0.349764 518.11 610)">6</text><text fill="#595959" font-family="Calibri,Calibri_MSFontService,sans-serif" font-weight="400" font-size="41" transform="matrix(0.349772 0 0 0.349764 546.004 610)">7</text><text fill="#595959" font-family="Calibri,Calibri_MSFontService,sans-serif" font-weight="400" font-size="41" transform="matrix(0.349772 0 0 0.349764 573.895 610)">8</text><text fill="#595959" font-family="Calibri,Calibri_MSFontService,sans-serif" font-weight="400" font-size="41" transform="matrix(0.349772 0 0 0.349764 601.789 610)">9</text><text fill="#595959" font-family="Calibri,Calibri_MSFontService,sans-serif" font-weight="400" font-size="41" transform="matrix(0.349772 0 0 0.349764 626.025 610)">10</text><text fill="#595959" font-family="Calibri,Calibri_MSFontService,sans-serif" font-weight="400" font-size="41" transform="matrix(0.349772 0 0 0.349764 653.919 610)">11</text><text fill="#595959" font-family="Calibri,Calibri_MSFontService,sans-serif" font-weight="400" font-size="41" transform="matrix(0.349772 0 0 0.349764 681.81 610)">12</text><text fill="#595959" font-family="Calibri,Calibri_MSFontService,sans-serif" font-weight="400" font-size="41" transform="matrix(0.349772 0 0 0.349764 709.704 610)">13</text><text fill="#595959" font-family="Calibri,Calibri_MSFontService,sans-serif" font-weight="400" font-size="41" transform="matrix(0.349772 0 0 0.349764 737.595 610)">14</text><text fill="#595959" font-family="Calibri,Calibri_MSFontService,sans-serif" font-weight="400" font-size="41" transform="matrix(0.349772 0 0 0.349764 765.486 610)">15</text><text fill="#595959" font-family="Calibri,Calibri_MSFontService,sans-serif" font-weight="400" font-size="41" transform="matrix(0.349772 0 0 0.349764 793.38 610)">16</text><text fill="#595959" font-family="Calibri,Calibri_MSFontService,sans-serif" font-weight="400" font-size="41" transform="matrix(0.349772 0 0 0.349764 821.271 610)">17</text><text fill="#595959" font-family="Calibri,Calibri_MSFontService,sans-serif" font-weight="400" font-size="41" transform="matrix(0.349772 0 0 0.349764 849.166 610)">18</text><text fill="#595959" font-family="Calibri,Calibri_MSFontService,sans-serif" font-weight="400" font-size="41" transform="matrix(0.349772 0 0 0.349764 877.056 610)">19</text><text fill="#595959" font-family="Calibri,Calibri_MSFontService,sans-serif" font-weight="400" font-size="41" transform="matrix(0.349772 0 0 0.349764 904.951 610)">20</text><text fill="#595959" font-family="Calibri,Calibri_MSFontService,sans-serif" font-weight="400" font-size="41" transform="matrix(0.349772 0 0 0.349764 932.842 610)">21</text><text fill="#595959" font-family="Calibri,Calibri_MSFontService,sans-serif" font-weight="400" font-size="41" transform="matrix(0.349772 0 0 0.349764 960.732 610)">22</text><text fill="#595959" font-family="Calibri,Calibri_MSFontService,sans-serif" font-weight="400" font-size="41" transform="matrix(0.349772 0 0 0.349764 988.627 610)">23</text><text fill="#595959" font-family="Calibri,Calibri_MSFontService,sans-serif" font-weight="400" font-size="41" transform="matrix(0.349772 0 0 0.349764 1016.52 610)">24</text><path d="M773.327 264.421 804.107 264.421" stroke="#ED7D31" stroke-width="3.60694" stroke-linecap="round" stroke-linejoin="round" stroke-miterlimit="10" fill="none" fill-rule="evenodd" transform="matrix(1.00002 0 0 1 -621.858 47.1904)"/><text fill="#595959" font-family="Calibri,Calibri_MSFontService,sans-serif" font-weight="400" font-size="41" transform="matrix(0.349772 0 0 0.349764 185.514 316)">Activation</text><path d="M773.327 291.703 804.107 291.703" stroke="#FFD966" stroke-width="3.60694" stroke-linecap="round" stroke-linejoin="round" stroke-miterlimit="10" fill="none" fill-rule="evenodd" transform="matrix(1.00002 0 0 1 -621.858 47.1904)"/><text fill="#595959" font-family="Calibri,Calibri_MSFontService,sans-serif" font-weight="400" font-size="41" transform="matrix(0.349772 0 0 0.349764 185.514 343)">Hysteresis</text><path d="M773.327 318.635 804.107 318.635" stroke="#4472C4" stroke-width="3.60694" stroke-linecap="round" stroke-linejoin="round" stroke-miterlimit="10" fill="none" fill-rule="evenodd" transform="matrix(1.00002 0 0 1 -621.858 47.1904)"/><text fill="#595959" font-family="Calibri,Calibri_MSFontService,sans-serif" font-weight="400" font-size="41" transform="matrix(0.349772 0 0 0.349764 185.514 370)">Temperature flow</text><path d="M773.327 345.566 804.107 345.566" stroke="#5B9BD5" stroke-width="3.60694" stroke-linecap="round" stroke-linejoin="round" stroke-miterlimit="10" fill="none" fill-rule="evenodd" transform="matrix(1.00002 0 0 1 -621.858 47.1904)"/><text fill="#595959" font-family="Calibri,Calibri_MSFontService,sans-serif" font-weight="400" font-size="41" transform="matrix(0.349772 0 0 0.349764 185.514 397)">Temperature return</text><path d="M773.327 372.848 804.107 372.848" stroke="#70AD47" stroke-width="3.60694" stroke-linecap="round" stroke-linejoin="round" stroke-miterlimit="10" fill="none" fill-rule="evenodd" transform="matrix(1.00002 0 0 1 -621.858 47.1904)"/><text fill="#595959" font-family="Calibri,Calibri_MSFontService,sans-serif" font-weight="400" font-size="41" transform="matrix(0.349772 0 0 0.349764 185.514 424)">∆</text><text fill="#595959" font-family="Calibri,Calibri_MSFontService,sans-serif" font-weight="400" font-size="41" transform="matrix(0.349772 0 0 0.349764 193.559 424)">T</text><path d="M756.364 60.3342 1677.29 60.3342 1677.29 577.285 756.364 577.285Z" stroke="#D9D9D9" stroke-width="1.20231" stroke-linejoin="round" stroke-miterlimit="10" fill="none" transform="matrix(1.00002 0 0 1 -621.858 47.1904)"/><text font-family="Calibri,Calibri_MSFontService,sans-serif" font-weight="400" font-size="50" transform="matrix(0.349772 0 0 0.349764 660.981 382)">Pump activated</text></g></svg>